<svg xmlns="http://www.w3.org/2000/svg" id="Layer_1" viewBox="0 0 330.02805 436.1265" width="330.028" height="436.127">
  <style id="style837">
    .st0{fill:#FFFFFF;stroke:#000000;stroke-width:2.8346;stroke-miterlimit:10;}
  </style>
  <path class="st0" d="M252.913 297.265l7.7-.3 5.1-13.2-1.7 22.2 25.4-4.5 2.7-4.5h-10.9l3.4-15.9 2.7 11.3 31.2-1.4-2.1-30.2s-6 1.4-6.1 5.9c-.1 7.2.8 17 .8 17l-3.5 1v-23.6s7.9-16.2 7.9-21.8c1.7-.3-9.7-4-9.7-4s6.9-31 6.4-36.7c-.5-5.7 2.9-18.2-14.7-46.5-7.9-12.7-44.8-62.1-45.6-61.8h-13.7l-5.2-34.6s-7-20.3-8.4-22.5c-1.5-2.2-12.1-29.5-34-19.6-19.1 8.7-9.1 32.1-9.1 32.1l26.3-17.9 3.5 4.6-17.8 12.4 17 .1v7l-27.8.9 6.6 14.7s2-7.5 7.7-6.1c6.6 1.7 5.8 6.5 9 7.9 1.9.9 2.1-3.1 2.9-9.3.4-2.8 5.8-2.9 7.7-1.6 1.8 1.3.3 1.3 2.1 2.5s-3.2-.6-3.2-.6-2.9-.6-3.1 1.3c-.2 1.9.5 6.1-2.2 10.4-2.9 4.6-6.4 2.1-12.3-4.8-2.3-2.6-6.4 2.2-5.1 4.9 2 4.2 9.1 8.6 9.1 8.6s6.6 5.6 17.2-2.8c4.9-3.9 3.5-20.7 3.5-20.7s2.6 1.1 2.5 8.2c0 2.6-.1 4.3-.3 8.4-.5 10-3.1 10.5-3.1 10.5l.6 7.4-16.8.5s-15.1 22.4-16.1 25.6c-1 3.2-31.5 34.6-31.5 34.6l-19-28.3 22.5-20.6-13.2-20.6-23.2 14.1 22.4 5.1-3.6 3.9-35.3-7.5 34.8-21.8-4.4-5.6-19.4 12.4-12.7-10.3-26.7 16.9 10 18.8-10.2 7.4 26.3 8.6-4.6-7.8 24.6 1.8-.8-9 7.4 1.2-.1 14-20.7.1 4.2 5.9-24-2.9 12.7 16.9 14.4-11.2 38.2 38.2 38.3-44.8 10.3-12.2 2.6 18s-1.4 33.5-2.5 38.9c-.5 2.3-9.7 29.4-9.7 29.4l-6.9 11.3-74.7-47.4-30.5 84.4s-17.9-3.1-25.9-2.4c-12.6 1.1-44.1 6.4-46.6 12l71.9 26.3 31.9-100.2 63.9 49-21.6 25.8s-27.9 25.3-29.1 26.6c-1.2 1.3-24.1 20.2-24.1 20.2l71.9 45.3-8 46.5s-19.4 9.3-23.8 25.3c0 2.3 68.1-2.3 68.1-2.3l-5.7-66.8-77.1-49.7 66.9-56.2s29.4-38.5 35.2-53.3c17.9-46.1 18.3-88.2 18.3-88.2s34.6 32.5 46.1 69.7c8.6 21.7-13.8 51.6-13.8 51.6l-27.7 7.1-19.1 37.7 19 1.1z" id="path839" fill="#fff" stroke="#000" stroke-width="2.835" stroke-miterlimit="10"/>
</svg>
