<?xml version="1.0" encoding="UTF-8" standalone="no"?>
<!-- Generator: Adobe Illustrator 22.0.1, SVG Export Plug-In . SVG Version: 6.00 Build 0)  -->

<svg
   xmlns:dc="http://purl.org/dc/elements/1.1/"
   xmlns:cc="http://creativecommons.org/ns#"
   xmlns:rdf="http://www.w3.org/1999/02/22-rdf-syntax-ns#"
   xmlns:svg="http://www.w3.org/2000/svg"
   xmlns="http://www.w3.org/2000/svg"
   xmlns:sodipodi="http://sodipodi.sourceforge.net/DTD/sodipodi-0.dtd"
   xmlns:inkscape="http://www.inkscape.org/namespaces/inkscape"
   version="1.1"
   id="Layer_1"
   x="0px"
   y="0px"
   viewBox="0 0 330.02805 436.1265"
   xml:space="preserve"
   sodipodi:docname="happy-inkscape.svg"
   inkscape:version="0.92.2 (5c3e80d, 2017-08-06)"
   width="330.02805"
   height="436.1265"><metadata
     id="metadata846"><rdf:RDF><cc:Work
         rdf:about=""><dc:format>image/svg+xml</dc:format><dc:type
           rdf:resource="http://purl.org/dc/dcmitype/StillImage" /><dc:title></dc:title></cc:Work></rdf:RDF></metadata><defs
     id="defs844" /><sodipodi:namedview
     pagecolor="#ffffff"
     bordercolor="#666666"
     borderopacity="1"
     objecttolerance="10"
     gridtolerance="10"
     guidetolerance="10"
     inkscape:pageopacity="0"
     inkscape:pageshadow="2"
     inkscape:window-width="1280"
     inkscape:window-height="962"
     id="namedview842"
     showgrid="false"
     inkscape:zoom="0.57393851"
     inkscape:cx="165.51339"
     inkscape:cy="221.56158"
     inkscape:window-x="-8"
     inkscape:window-y="-8"
     inkscape:window-maximized="1"
     inkscape:current-layer="Layer_1"
     fit-margin-top="10"
     fit-margin-left="10"
     fit-margin-right="10"
     fit-margin-bottom="10" /><style
     type="text/css"
     id="style837">
	.st0{fill:#FFFFFF;stroke:#000000;stroke-width:2.8346;stroke-miterlimit:10;}
</style><path
     class="st0"
     d="m 252.91339,297.26493 7.7,-0.3 5.1,-13.2 -1.7,22.2 25.4,-4.5 2.7,-4.5 h -10.9 l 3.4,-15.9 2.7,11.3 31.2,-1.4 -2.1,-30.2 c 0,0 -6,1.4 -6.1,5.9 -0.1,7.2 0.8,17 0.8,17 l -3.5,1 v -23.6 c 0,0 7.9,-16.2 7.9,-21.8 1.7,-0.3 -9.7,-4 -9.7,-4 0,0 6.9,-31 6.4,-36.7 -0.5,-5.7 2.9,-18.2 -14.7,-46.5 -7.9,-12.7 -44.8,-62.100001 -45.6,-61.800001 h -13.7 l -5.2,-34.6 c 0,0 -7,-20.3 -8.4,-22.5 -1.5,-2.2 -12.1,-29.4999997 -34,-19.6 -19.1,8.7 -9.1,32.1 -9.1,32.1 l 26.3,-17.9 3.5,4.6 -17.8,12.4 17,0.1 v 7 l -27.8,0.9 6.6,14.7 c 0,0 2,-7.5 7.7,-6.1 6.6,1.7 5.8,6.5 9,7.9 1.9,0.9 2.1,-3.1 2.9,-9.3 0.4,-2.8 5.8,-2.9 7.7,-1.6 1.8,1.3 0.3,1.3 2.1,2.5 1.8,1.2 -3.2,-0.6 -3.2,-0.6 0,0 -2.9,-0.6 -3.1,1.3 -0.2,1.9 0.5,6.1 -2.2,10.4 -2.9,4.6 -6.4,2.1 -12.3,-4.8 -2.3,-2.6 -6.4,2.2 -5.1,4.9 2,4.2 9.1,8.6 9.1,8.6 0,0 6.6,5.6 17.2,-2.8 4.9,-3.9 3.5,-20.7 3.5,-20.7 0,0 2.6,1.1 2.5,8.2 0,2.6 -0.1,4.3 -0.3,8.4 -0.5,10 -3.1,10.5 -3.1,10.5 l 0.6,7.4 -16.8,0.5 c 0,0 -15.1,22.400001 -16.1,25.600001 -1,3.2 -31.5,34.6 -31.5,34.6 l -19,-28.3 22.5,-20.6 -13.2,-20.600001 -23.2,14.1 22.4,5.100001 -3.6,3.9 -35.3,-7.500001 34.8,-21.8 -4.4,-5.6 -19.4,12.4 -12.7,-10.3 -26.699998,16.9 10,18.800001 -10.2,7.4 26.299998,8.6 -4.6,-7.8 24.6,1.8 -0.8,-9 7.4,1.2 -0.1,14 -20.7,0.1 4.2,5.9 -23.999998,-2.9 12.699998,16.9 14.4,-11.2 38.2,38.2 38.3,-44.8 10.3,-12.2 2.6,18 c 0,0 -1.4,33.5 -2.5,38.9 -0.5,2.3 -9.7,29.4 -9.7,29.4 l -6.9,11.3 -74.7,-47.4 -30.499998,84.4 c 0,0 -17.9,-3.1 -25.9,-2.4 -12.6,1.1 -44.1,6.4 -46.6,12 l 71.9,26.3 31.899998,-100.2 63.9,49 -21.6,25.8 c 0,0 -27.9,25.3 -29.1,26.6 -1.2,1.3 -24.1,20.2 -24.1,20.2 l 71.9,45.3 -8,46.5 c 0,0 -19.4,9.3 -23.8,25.3 0,2.3 68.1,-2.3 68.1,-2.3 l -5.7,-66.8 -77.1,-49.7 66.9,-56.2 c 0,0 29.4,-38.5 35.2,-53.3 17.9,-46.1 18.3,-88.2 18.3,-88.2 0,0 34.6,32.5 46.1,69.7 8.6,21.7 -13.8,51.6 -13.8,51.6 l -27.7,7.1 -19.1,37.7 19,1.1 z"
     id="path839"
     inkscape:connector-curvature="0"
     style="fill:#ffffff;stroke:#000000;stroke-width:2.83459997;stroke-miterlimit:10" /></svg>