<?xml version="1.0" encoding="UTF-8" standalone="no"?>
<!-- Created with Inkscape (http://www.inkscape.org/) -->

<svg
   xmlns:dc="http://purl.org/dc/elements/1.1/"
   xmlns:cc="http://creativecommons.org/ns#"
   xmlns:rdf="http://www.w3.org/1999/02/22-rdf-syntax-ns#"
   xmlns:svg="http://www.w3.org/2000/svg"
   xmlns="http://www.w3.org/2000/svg"
   xmlns:sodipodi="http://sodipodi.sourceforge.net/DTD/sodipodi-0.dtd"
   xmlns:inkscape="http://www.inkscape.org/namespaces/inkscape"
   width="800"
   height="800"
   viewBox="0 0 211.66667 211.66667"
   version="1.1"
   id="svg852"
   inkscape:version="0.92.2 (5c3e80d, 2017-08-06)"
   sodipodi:docname="more-colors-square.svg">
  <defs
     id="defs846" />
  <sodipodi:namedview
     id="base"
     pagecolor="#ffffff"
     bordercolor="#666666"
     borderopacity="1.0"
     inkscape:pageopacity="0.0"
     inkscape:pageshadow="2"
     inkscape:zoom="0.35"
     inkscape:cx="-87.142857"
     inkscape:cy="560"
     inkscape:document-units="mm"
     inkscape:current-layer="layer1"
     showgrid="false"
     units="px"
     inkscape:window-width="1280"
     inkscape:window-height="962"
     inkscape:window-x="-8"
     inkscape:window-y="-8"
     inkscape:window-maximized="1" />
  <metadata
     id="metadata849">
    <rdf:RDF>
      <cc:Work
         rdf:about="">
        <dc:format>image/svg+xml</dc:format>
        <dc:type
           rdf:resource="http://purl.org/dc/dcmitype/StillImage" />
        <dc:title></dc:title>
      </cc:Work>
    </rdf:RDF>
  </metadata>
  <g
     inkscape:label="Layer 1"
     inkscape:groupmode="layer"
     id="layer1"
     transform="translate(0,-85.333349)">
    <g
       id="g5097"
       transform="translate(0,1.5666667e-5)">
      <path
         style="fill:#11ebe1;stroke-width:0.26458335"
         d="M 0,191.16666 V 85.333328 H 105.83333 211.66667 V 191.16666 297 H 105.83333 0 Z"
         id="path5113"
         inkscape:connector-curvature="0" />
      <path
         style="fill:#fcd109;stroke-width:0.26458335"
         d="M 0,191.16666 V 85.333328 H 105.83333 211.66667 V 191.16666 297 H 105.83333 0 Z m 154.62544,79.74429 c 0.48391,-0.18569 0.44015,-0.45857 -0.632,-3.94116 -0.40321,-1.30969 -0.97907,-3.57188 -1.27971,-5.02708 -0.30063,-1.45521 -0.80778,-3.89599 -1.127,-5.42396 -0.33729,-1.61451 -0.66811,-4.49585 -0.78982,-6.87917 -0.11519,-2.25557 -0.28688,-4.29969 -0.38153,-4.54248 -0.26075,-0.66886 -2.1429,-0.96496 -7.27579,-1.14463 -2.54662,-0.0891 -5.56392,-0.24556 -6.70512,-0.34759 -2.41255,-0.21569 -2.78869,-0.52109 -3.52717,-2.86383 l -0.45672,-1.44888 -1.07164,0.17628 c -2.2049,0.36271 -6.1106,1.48695 -8.31619,2.39379 -5.08848,2.09215 -8.57971,4.4107 -11.89165,7.89731 -2.83562,2.98517 -2.82687,2.84122 -0.24653,4.05783 6.56874,3.0971 7.84233,7.36439 3.19419,10.70244 -0.62792,0.45093 -1.14167,0.90396 -1.14167,1.00673 0,0.10277 0.92273,0.18055 2.05052,0.17285 5.46251,-0.0373 10.81265,0.36208 13.4276,1.00235 9.92524,2.4302 14.43825,3.42921 17.33021,3.83622 3.33326,0.46913 8.06879,0.66893 8.84002,0.37298 z M 57.472189,235.96693 c 2.315724,-0.69577 2.772357,-1.14402 1.165426,-1.14402 -1.120171,0 -3.40039,-0.68252 -5.019651,-1.5025 -0.705694,-0.35736 -1.34792,-0.5849 -1.427168,-0.50565 -0.202353,0.20235 0.662403,2.85813 1.16368,3.5738 0.470699,0.67202 0.481375,0.67093 4.117713,-0.42163 z m 15.023645,-3.25914 c 3.13262,-0.56377 3.724506,-0.58554 11.20688,-0.41211 5.306073,0.12299 7.868603,0.0949 7.805209,-0.0854 -0.05191,-0.14766 -1.225474,-1.20556 -2.607922,-2.3509 -5.534138,-4.58494 -9.072044,-10.50042 -10.220859,-17.08959 -0.779936,-4.47343 -0.125275,-10.13723 1.630672,-14.10773 0.358979,-0.81171 0.652687,-1.57049 0.652687,-1.68618 0,-0.11568 -0.441727,-0.0884 -0.981614,0.0607 -0.988256,0.27287 -3.368683,0.16883 -4.549831,-0.19885 l -0.636654,-0.19819 0.158184,2.09156 c 0.131461,1.73822 0.339582,2.44931 1.231966,4.20927 0.590579,1.16475 1.069197,2.23659 1.063591,2.38189 -0.0056,0.14529 -0.39256,0.5076 -0.859896,0.80513 -0.987803,0.62888 -0.996011,0.79345 -0.18419,3.69237 0.837145,2.98933 0.851009,8.09366 0.03019,11.1125 -1.405509,5.16921 -4.430583,9.49881 -8.17018,11.69348 -0.618464,0.36296 -1.12448,0.7488 -1.12448,0.85742 0,0.20974 0.366464,0.1586 5.55625,-0.7754 z m 11.530683,-40.41665 c 0.410064,-0.5457 1.50196,-1.78205 2.426435,-2.74744 l 1.680864,-1.75524 -0.811932,-0.28305 c -0.77261,-0.26933 -0.843471,-0.23308 -1.463086,0.74845 -0.767691,1.2161 -2.615871,2.37654 -4.102626,2.57595 -0.983165,0.13187 -1.519875,0.60144 -0.687438,0.60144 0.203949,0 0.709965,0.40812 1.124479,0.90694 0.414515,0.49881 0.828829,0.91553 0.920697,0.92604 0.09187,0.0105 0.502542,-0.42738 0.912607,-0.97309 z m -6.83984,-1.8135 c -0.08792,-0.0879 -0.316124,-0.0973 -0.507119,-0.0209 -0.211066,0.0845 -0.148373,0.14715 0.159854,0.15985 0.278913,0.0115 0.435184,-0.0511 0.347265,-0.13897 z"
         id="path5111"
         inkscape:connector-curvature="0" />
      <path
         style="fill:#ea00de;stroke-width:0.26458335"
         d="M 0,191.16666 V 85.333328 H 105.83333 211.66667 V 191.16666 297 H 105.83333 0 Z m 154.62544,79.74429 c 0.48391,-0.18569 0.44015,-0.45857 -0.632,-3.94116 -0.40321,-1.30969 -0.97907,-3.57188 -1.27971,-5.02708 -0.30063,-1.45521 -0.80778,-3.89599 -1.127,-5.42396 -0.33729,-1.61451 -0.66811,-4.49585 -0.78982,-6.87917 -0.11519,-2.25557 -0.28688,-4.29969 -0.38153,-4.54248 -0.26075,-0.66886 -2.1429,-0.96496 -7.27579,-1.14463 -2.54662,-0.0891 -5.56392,-0.24556 -6.70512,-0.34759 -2.41255,-0.21569 -2.78869,-0.52109 -3.52717,-2.86383 l -0.45672,-1.44888 -1.07164,0.17628 c -2.2049,0.36271 -6.1106,1.48695 -8.31619,2.39379 -5.08848,2.09215 -8.57971,4.4107 -11.89165,7.89731 -2.83562,2.98517 -2.82687,2.84122 -0.24653,4.05783 6.56874,3.0971 7.84233,7.36439 3.19419,10.70244 -0.62792,0.45093 -1.14167,0.90396 -1.14167,1.00673 0,0.10277 0.92273,0.18055 2.05052,0.17285 5.46251,-0.0373 10.81265,0.36208 13.4276,1.00235 9.92524,2.4302 14.43825,3.42921 17.33021,3.83622 3.33326,0.46913 8.06879,0.66893 8.84002,0.37298 z M 57.472189,235.96693 c 2.315724,-0.69577 2.772357,-1.14402 1.165426,-1.14402 -1.120171,0 -3.40039,-0.68252 -5.019651,-1.5025 -0.705694,-0.35736 -1.34792,-0.5849 -1.427168,-0.50565 -0.202353,0.20235 0.662403,2.85813 1.16368,3.5738 0.470699,0.67202 0.481375,0.67093 4.117713,-0.42163 z m 15.023645,-3.25914 c 3.13262,-0.56377 3.724506,-0.58554 11.20688,-0.41211 5.306073,0.12299 7.868603,0.0949 7.805209,-0.0854 -0.05191,-0.14766 -1.225474,-1.20556 -2.607922,-2.3509 -5.534138,-4.58494 -9.072044,-10.50042 -10.220859,-17.08959 -0.779936,-4.47343 -0.125275,-10.13723 1.630672,-14.10773 0.358979,-0.81171 0.652687,-1.57049 0.652687,-1.68618 0,-0.11568 -0.441727,-0.0884 -0.981614,0.0607 -0.988256,0.27287 -3.368683,0.16883 -4.549831,-0.19885 l -0.636654,-0.19819 0.158184,2.09156 c 0.131461,1.73822 0.339582,2.44931 1.231966,4.20927 0.590579,1.16475 1.069197,2.23659 1.063591,2.38189 -0.0056,0.14529 -0.39256,0.5076 -0.859896,0.80513 -0.987803,0.62888 -0.996011,0.79345 -0.18419,3.69237 0.837145,2.98933 0.851009,8.09366 0.03019,11.1125 -1.405509,5.16921 -4.430583,9.49881 -8.17018,11.69348 -0.618464,0.36296 -1.12448,0.7488 -1.12448,0.85742 0,0.20974 0.366464,0.1586 5.55625,-0.7754 z m 70.035096,-30.86771 c 0.22371,-0.58296 -0.31893,-3.70885 -1.07204,-6.1755 -0.48187,-1.57829 -0.75047,-2.0548 -1.31254,-2.32852 -0.38867,-0.18928 -0.82519,-0.56559 -0.97004,-0.83625 -0.14485,-0.27065 -0.68949,-0.75546 -1.21031,-1.07735 -1.46691,-0.9066 -3.10772,-0.62752 -4.38949,0.74661 -1.29607,1.38945 -1.71411,2.89686 -1.32666,4.78381 0.29927,1.45753 1.25313,2.98967 2.16512,3.47775 0.28286,0.15138 0.96263,0.31878 1.5106,0.37198 0.54797,0.0532 1.46145,0.29753 2.02996,0.54294 2.07434,0.89543 4.32809,1.13903 4.5754,0.49453 z m -58.176023,-9.94581 c 0.591529,-0.76399 1.667711,-1.97019 2.391516,-2.68046 1.019495,-1.00042 1.246743,-1.36554 1.008583,-1.62049 -0.169084,-0.18101 -0.476414,-0.26426 -0.682953,-0.185 -0.228658,0.0877 -0.305122,0.0302 -0.195514,-0.14716 0.09901,-0.1602 0.059,-0.36605 -0.08889,-0.45746 -0.147894,-0.0914 -0.273119,-0.66517 -0.278275,-1.27505 -0.0052,-0.60987 -0.179531,-1.40652 -0.387499,-1.77032 -0.207967,-0.3638 -0.382344,-0.74157 -0.387498,-0.83949 -0.0052,-0.0979 0.864804,-0.11192 1.933247,-0.0311 1.696929,0.12834 1.965397,0.0876 2.12267,-0.32226 0.101587,-0.26474 0.0045,-0.73713 -0.222832,-1.08406 -0.614683,-0.93812 -0.503428,-1.82966 0.293476,-2.35181 0.547129,-0.3585 0.618003,-0.50589 0.330729,-0.68784 -0.657339,-0.41632 -3.223953,-0.25169 -4.400243,0.28225 -1.025274,0.46539 -1.337556,0.85406 -1.75341,2.1823 -0.130908,0.41812 -0.232515,0.42352 -1.245415,0.0662 -1.720503,-0.60703 -4.098602,-0.49803 -5.732703,0.26275 -1.267484,0.5901 -1.388457,0.72303 -1.382154,1.51877 0.0038,0.47964 -0.263986,1.92311 -0.59508,3.20771 l -0.60199,2.33565 1.0581,0.96998 c 0.581956,0.5335 1.032349,1.048 1.000874,1.14334 -0.03148,0.0953 0.891257,0.25731 2.050521,0.35993 1.159261,0.10262 2.10775,0.29325 2.10775,0.42362 0,0.13038 0.166867,0.23705 0.370816,0.23705 0.203949,0 0.709965,0.40812 1.124479,0.90694 0.414515,0.49881 0.828482,0.91553 0.919925,0.92604 0.09144,0.0105 0.65024,-0.60598 1.241769,-1.36996 z m 45.828043,-1.5875 c 3.15816,-1.59546 3.13451,-5.18206 -0.0446,-6.76054 -1.36418,-0.67733 -3.7758,-0.83277 -5.09624,-0.32847 -0.66259,0.25306 -0.89715,0.20366 -1.71979,-0.36216 -1.62878,-1.12032 -2.76658,-1.37159 -6.67514,-1.47415 -0.0915,-0.002 -0.3165,-0.36689 -0.50004,-0.80998 -0.18353,-0.44308 -0.91708,-1.31594 -1.63011,-1.93969 l -1.29643,-1.13407 0.73813,-1.4227 c 0.63912,-1.23189 0.73812,-1.72581 0.73812,-3.68271 0,-2.61624 -0.54191,-4.02744 -2.18719,-5.69574 -1.42135,-1.44124 -3.01678,-2.09578 -4.98517,-2.0452 -2.5323,0.0651 -2.84885,0.27475 -3.67373,2.43344 -0.86008,2.2508 -1.73354,3.36429 -2.86804,3.65623 -0.72739,0.18717 -0.84879,0.34452 -0.92008,1.1925 -0.0921,1.09574 -0.254427,1.15849 -1.427595,0.55182 -1.136792,-0.58786 -3.911616,-0.40692 -4.883118,0.31841 -1.064077,0.79445 -1.299509,1.29002 -1.005337,2.11618 0.744228,2.09015 4.757851,2.65768 6.777395,0.95835 0.789375,-0.66421 0.853365,-0.67673 1.125735,-0.22022 0.89464,1.49944 2.16603,2.87856 3.22679,3.5002 0.991,0.58077 1.17473,0.8054 1.03395,1.2641 -0.72282,2.35504 -0.69663,2.51151 0.52597,3.14283 0.43656,0.22543 2.2225,1.37796 3.96875,2.56117 2.42815,1.64524 3.31854,2.11558 3.78521,1.99951 0.33636,-0.0837 1.30783,0.10259 2.16468,0.41501 1.24841,0.45519 1.96176,0.54369 3.62312,0.44948 1.13776,-0.0645 2.25517,-0.20091 2.48312,-0.3031 0.26758,-0.11995 0.7833,0.11081 1.45521,0.65112 1.51719,1.22006 2.4197,1.54173 4.35812,1.55333 1.28359,0.008 2.03389,-0.14322 2.90828,-0.58495 z M 70.695258,176.51101 c 0.876644,-0.68597 0.888986,-0.79744 0.163187,-1.47362 -0.910937,-0.84867 -2.389913,-0.72843 -3.223356,0.26206 -0.710104,0.84391 -1.129771,2.3434 -0.855728,3.05754 0.139231,0.36283 0.380224,0.30092 1.682718,-0.43231 0.836118,-0.47068 1.841048,-1.10683 2.233179,-1.41367 z"
         id="path5109"
         inkscape:connector-curvature="0" />
      <path
         style="fill:#02a1e7;stroke-width:0.26458335"
         d="m 149.35729,276.08385 c -1.4552,-0.1251 -4.37224,-0.59169 -6.48229,-1.03688 -2.11005,-0.44519 -5.4438,-1.11267 -7.40833,-1.48328 -1.96453,-0.37062 -4.16719,-0.78624 -4.89479,-0.92362 -1.37079,-0.2588 -2.89742,-0.49317 -8.06979,-1.23889 -1.82496,-0.26312 -4.78993,-0.44213 -7.40834,-0.44729 -4.11463,-0.008 -4.47864,0.0331 -6.33131,0.7161 -1.08113,0.39858 -2.57044,1.1412 -3.30958,1.65026 -1.67381,1.1528 -2.49472,1.17265 -3.72763,0.0901 -1.15992,-1.01843 -2.138507,-3.11638 -3.744681,-8.0281 -0.666213,-2.03729 -1.420304,-4.12089 -1.67576,-4.63021 -0.567184,-1.13085 -2.441966,-7.55303 -3.050897,-10.45104 -0.244615,-1.16417 -0.557255,-2.65245 -0.694756,-3.30729 -0.137499,-0.65485 -0.272915,-3.19333 -0.300921,-5.64107 -0.04174,-3.64812 -0.122471,-4.48889 -0.447797,-4.66366 -1.72212,-0.92518 -11.292615,-1.4291 -15.55945,-0.81927 -0.973918,0.13919 -2.781726,0.37847 -4.017351,0.53172 -2.335718,0.28969 -4.912141,0.84961 -10.021819,2.17801 -2.17383,0.56515 -4.034947,1.2981 -6.711181,2.64302 -4.378753,2.20052 -5.310542,2.41023 -6.449824,1.45159 -1.039471,-0.87466 -1.424416,-2.54797 -1.430385,-6.21772 -0.0026,-1.55324 -0.181121,-3.65747 -0.396875,-4.67607 -0.215755,-1.01859 -0.392282,-2.10897 -0.392282,-2.42307 0,-0.80571 -1.89983,-7.33131 -3.175654,-10.90786 -0.597966,-1.67629 -1.002932,-3.22588 -0.915247,-3.50216 0.08651,-0.27255 0.893517,-1.02099 1.793362,-1.66321 0.899843,-0.64221 2.4535,-2.01447 3.452569,-3.04946 0.99907,-1.03499 2.204302,-2.20656 2.678295,-2.60349 0.473991,-0.39692 2.764306,-2.50762 5.089592,-4.69043 2.325282,-2.18281 4.909682,-4.55003 5.743109,-5.26048 2.303542,-1.96365 5.251876,-5.4788 6.165895,-7.35128 0.7277,-1.49078 1.271963,-3.30174 1.795854,-5.97544 0.241123,-1.23058 -0.346792,-1.33724 -2.184365,-0.39627 -3.459398,1.77145 -5.000046,2.60581 -5.61947,3.0433 -0.835655,0.59022 -1.909003,0.58982 -2.63176,-10e-4 -0.543195,-0.44402 -0.571714,-0.72362 -0.694923,-6.81302 -0.07066,-3.4925 -0.172156,-8.13594 -0.225539,-10.31875 -0.05338,-2.18281 -0.02175,-4.61795 0.0703,-5.41141 0.161708,-1.39399 0.216466,-1.47531 1.622565,-2.40966 1.692368,-1.12458 3.589113,-2.27646 4.984142,-3.02684 0.541073,-0.29105 1.679133,-1.06012 2.529025,-1.70907 l 1.545259,-1.17989 -0.153593,-1.33365 c -0.08448,-0.73342 -0.286957,-2.46466 -0.449956,-3.8471 -0.374446,-3.17581 -1.831435,-8.15834 -4.023206,-13.75834 -0.939761,-2.40109 -1.914129,-5.02047 -2.165266,-5.82083 -0.251137,-0.80037 -0.868079,-2.05775 -1.370983,-2.79418 -0.91567,-1.34086 -1.034299,-1.79292 -0.943891,-3.59683 0.04241,-0.84617 0.197292,-1.05426 1.239094,-1.66479 0.654844,-0.38377 1.190625,-0.78613 1.190625,-0.89414 0,-0.10801 0.376997,-0.41908 0.837769,-0.69127 1.180859,-0.69755 9.822228,-7.95677 12.303631,-10.33573 3.00147,-2.87754 3.980145,-2.95407 6.096587,-0.47675 1.629958,1.90788 4.88314,4.39463 7.737838,5.91483 3.340653,1.77898 9.353841,5.16199 11.614151,6.53409 2.16297,1.31301 7.5652,4.03602 8.00713,4.03602 0.1519,0 1.01087,0.28921 1.90881,0.6427 0.89794,0.35349 3.50405,1.36188 5.79134,2.24087 4.98633,1.91622 6.71871,2.76946 9.8615,4.85704 2.45171,1.62853 6.76586,5.60922 7.4213,6.84768 0.8155,1.54088 0.69132,8.40851 -0.18228,10.08112 -0.13216,0.25302 -0.54044,1.50318 -0.90729,2.77813 -1.51775,5.2747 -1.74805,5.91582 -2.3637,6.58011 -0.7202,0.77712 -4.72219,10.67919 -4.58331,11.34045 0.0529,0.25196 1.63962,1.141 3.92528,2.19934 l 3.83645,1.77644 3.84,3.83691 c 2.86991,2.86761 4.3563,4.60558 5.88378,6.87963 l 2.04379,3.0427 1.59021,6.08542 c 1.96259,7.51044 2.01089,8.52208 0.68283,14.30256 -0.86255,3.75431 -1.08426,4.32061 -4.39664,11.22973 -1.91855,4.00183 -3.64486,7.71465 -3.83623,8.25071 -0.33209,0.93028 -0.61701,6.42092 -0.34719,6.69074 0.071,0.071 3.39577,0.61464 7.38842,1.20813 3.99265,0.59349 7.52575,1.13358 7.85133,1.2002 1.16682,0.23875 1.37074,1.03437 1.89963,7.41187 0.66662,8.0382 1.23109,10.33582 4.68871,19.0851 1.50787,3.81555 2.74157,7.16587 2.74157,7.44516 0,0.81378 -0.81836,1.53405 -2.38125,2.09583 -1.76443,0.63422 -7.70168,0.92327 -11.77396,0.5732 z m 5.26815,-5.1729 c 0.48391,-0.18569 0.44015,-0.45857 -0.632,-3.94116 -0.40321,-1.30969 -0.97907,-3.57188 -1.27971,-5.02708 -0.30063,-1.45521 -0.80778,-3.89599 -1.127,-5.42396 -0.33729,-1.61451 -0.66811,-4.49585 -0.78982,-6.87917 -0.11519,-2.25557 -0.28688,-4.29969 -0.38153,-4.54248 -0.26075,-0.66886 -2.1429,-0.96496 -7.27579,-1.14463 -2.54662,-0.0891 -5.56392,-0.24556 -6.70512,-0.34759 -2.41255,-0.21569 -2.78869,-0.52109 -3.52717,-2.86383 l -0.45672,-1.44888 -1.07164,0.17628 c -2.2049,0.36271 -6.1106,1.48695 -8.31619,2.39379 -5.08848,2.09215 -8.57971,4.4107 -11.89165,7.89731 -2.83562,2.98517 -2.82687,2.84122 -0.24653,4.05783 6.56874,3.0971 7.84233,7.36439 3.19419,10.70244 -0.62792,0.45093 -1.14167,0.90396 -1.14167,1.00673 0,0.10277 0.92273,0.18055 2.05052,0.17285 5.46251,-0.0373 10.81265,0.36208 13.4276,1.00235 9.92524,2.4302 14.43825,3.42921 17.33021,3.83622 3.33326,0.46913 8.06879,0.66893 8.84002,0.37298 z M 57.472189,235.96693 c 2.315724,-0.69577 2.772357,-1.14402 1.165426,-1.14402 -1.120171,0 -3.40039,-0.68252 -5.019651,-1.5025 -0.705694,-0.35736 -1.34792,-0.5849 -1.427168,-0.50565 -0.202353,0.20235 0.662403,2.85813 1.16368,3.5738 0.470699,0.67202 0.481375,0.67093 4.117713,-0.42163 z m 15.023645,-3.25914 c 3.13262,-0.56377 3.724506,-0.58554 11.20688,-0.41211 5.306073,0.12299 7.868603,0.0949 7.805209,-0.0854 -0.05191,-0.14766 -1.225474,-1.20556 -2.607922,-2.3509 -5.534138,-4.58494 -9.072044,-10.50042 -10.220859,-17.08959 -0.779936,-4.47343 -0.125275,-10.13723 1.630672,-14.10773 0.358979,-0.81171 0.652687,-1.57049 0.652687,-1.68618 0,-0.11568 -0.441727,-0.0884 -0.981614,0.0607 -0.988256,0.27287 -3.368683,0.16883 -4.549831,-0.19885 l -0.636654,-0.19819 0.158184,2.09156 c 0.131461,1.73822 0.339582,2.44931 1.231966,4.20927 0.590579,1.16475 1.069197,2.23659 1.063591,2.38189 -0.0056,0.14529 -0.39256,0.5076 -0.859896,0.80513 -0.987803,0.62888 -0.996011,0.79345 -0.18419,3.69237 0.837145,2.98933 0.851009,8.09366 0.03019,11.1125 -1.405509,5.16921 -4.430583,9.49881 -8.17018,11.69348 -0.618464,0.36296 -1.12448,0.7488 -1.12448,0.85742 0,0.20974 0.366464,0.1586 5.55625,-0.7754 z m 27.149521,-7.06674 c 0.790075,-1.04821 2.407175,-2.83415 3.593565,-3.96875 4.28213,-4.09525 5.14668,-5.02278 7.59515,-8.14834 2.64714,-3.37919 4.30192,-6.46093 4.97251,-9.26042 0.76074,-3.17582 -0.11954,-5.67833 -3.32528,-9.45336 -2.54805,-3.00054 -4.59922,-4.51333 -9.31313,-6.86867 -3.417407,-1.70752 -4.490084,-2.12079 -5.975487,-2.30214 -1.932826,-0.23598 -2.195758,-0.12241 -2.203214,0.95165 -0.0068,0.98274 -2.156402,9.1431 -2.683563,10.1875 -0.272518,0.5399 -0.495488,1.10654 -0.495488,1.2592 0,0.32074 -2.11846,5.33491 -2.907033,6.88064 -0.930142,1.82323 -0.660736,2.38648 1.142736,2.38911 0.461039,8e-4 1.55263,0.29551 2.425755,0.65518 0.873125,0.35967 1.891803,0.65678 2.263731,0.66023 1.077306,0.01 3.940108,1.07349 4.200755,1.56051 0.154662,0.28899 0.05607,1.18165 -0.282054,2.55388 -0.285903,1.16028 -0.63023,3.2407 -0.765167,4.62314 -0.13494,1.38245 -0.424437,3.82323 -0.643327,5.42396 -0.218889,1.60073 -0.400306,3.61578 -0.403148,4.47789 l -0.0052,1.56748 0.685678,-0.64144 c 0.377121,-0.35278 1.3321,-1.49905 2.122175,-2.54725 z m 42.885575,-23.80097 c 0.22371,-0.58296 -0.31893,-3.70885 -1.07204,-6.1755 -0.48187,-1.57829 -0.75047,-2.0548 -1.31254,-2.32852 -0.38867,-0.18928 -0.82519,-0.56559 -0.97004,-0.83625 -0.14485,-0.27065 -0.68949,-0.75546 -1.21031,-1.07735 -1.46691,-0.9066 -3.10772,-0.62752 -4.38949,0.74661 -1.29607,1.38945 -1.71411,2.89686 -1.32666,4.78381 0.29927,1.45753 1.25313,2.98967 2.16512,3.47775 0.28286,0.15138 0.96263,0.31878 1.5106,0.37198 0.54797,0.0532 1.46145,0.29753 2.02996,0.54294 2.07434,0.89543 4.32809,1.13903 4.5754,0.49453 z m -58.176023,-9.94581 c 0.591529,-0.76399 1.667711,-1.97019 2.391516,-2.68046 1.019495,-1.00042 1.246743,-1.36554 1.008583,-1.62049 -0.169084,-0.18101 -0.476414,-0.26426 -0.682953,-0.185 -0.228658,0.0877 -0.305122,0.0302 -0.195514,-0.14716 0.09901,-0.1602 0.059,-0.36605 -0.08889,-0.45746 -0.147894,-0.0914 -0.273119,-0.66517 -0.278275,-1.27505 -0.0052,-0.60987 -0.179531,-1.40652 -0.387499,-1.77032 -0.207967,-0.3638 -0.382344,-0.74157 -0.387498,-0.83949 -0.0052,-0.0979 0.864804,-0.11192 1.933247,-0.0311 1.696929,0.12834 1.965397,0.0876 2.12267,-0.32226 0.101587,-0.26474 0.0045,-0.73713 -0.222832,-1.08406 -0.614683,-0.93812 -0.503428,-1.82966 0.293476,-2.35181 0.547129,-0.3585 0.618003,-0.50589 0.330729,-0.68784 -0.657339,-0.41632 -3.223953,-0.25169 -4.400243,0.28225 -1.025274,0.46539 -1.337556,0.85406 -1.75341,2.1823 -0.130908,0.41812 -0.232515,0.42352 -1.245415,0.0662 -1.720503,-0.60703 -4.098602,-0.49803 -5.732703,0.26275 -1.267484,0.5901 -1.388457,0.72303 -1.382154,1.51877 0.0038,0.47964 -0.263986,1.92311 -0.59508,3.20771 l -0.60199,2.33565 1.0581,0.96998 c 0.581956,0.5335 1.032349,1.048 1.000874,1.14334 -0.03148,0.0953 0.891257,0.25731 2.050521,0.35993 1.159261,0.10262 2.10775,0.29325 2.10775,0.42362 0,0.13038 0.166867,0.23705 0.370816,0.23705 0.203949,0 0.709965,0.40812 1.124479,0.90694 0.414515,0.49881 0.828482,0.91553 0.919925,0.92604 0.09144,0.0105 0.65024,-0.60598 1.241769,-1.36996 z m 45.828043,-1.5875 c 3.15816,-1.59546 3.13451,-5.18206 -0.0446,-6.76054 -1.36418,-0.67733 -3.7758,-0.83277 -5.09624,-0.32847 -0.66259,0.25306 -0.89715,0.20366 -1.71979,-0.36216 -1.62878,-1.12032 -2.76658,-1.37159 -6.67514,-1.47415 -0.0915,-0.002 -0.3165,-0.36689 -0.50004,-0.80998 -0.18353,-0.44308 -0.91708,-1.31594 -1.63011,-1.93969 l -1.29643,-1.13407 0.73813,-1.4227 c 0.63912,-1.23189 0.73812,-1.72581 0.73812,-3.68271 0,-2.61624 -0.54191,-4.02744 -2.18719,-5.69574 -1.42135,-1.44124 -3.01678,-2.09578 -4.98517,-2.0452 -2.5323,0.0651 -2.84885,0.27475 -3.67373,2.43344 -0.86008,2.2508 -1.73354,3.36429 -2.86804,3.65623 -0.72739,0.18717 -0.84879,0.34452 -0.92008,1.1925 -0.0921,1.09574 -0.254427,1.15849 -1.427595,0.55182 -1.136792,-0.58786 -3.911616,-0.40692 -4.883118,0.31841 -1.064077,0.79445 -1.299509,1.29002 -1.005337,2.11618 0.744228,2.09015 4.757851,2.65768 6.777395,0.95835 0.789375,-0.66421 0.853365,-0.67673 1.125735,-0.22022 0.89464,1.49944 2.16603,2.87856 3.22679,3.5002 0.991,0.58077 1.17473,0.8054 1.03395,1.2641 -0.72282,2.35504 -0.69663,2.51151 0.52597,3.14283 0.43656,0.22543 2.2225,1.37796 3.96875,2.56117 2.42815,1.64524 3.31854,2.11558 3.78521,1.99951 0.33636,-0.0837 1.30783,0.10259 2.16468,0.41501 1.24841,0.45519 1.96176,0.54369 3.62312,0.44948 1.13776,-0.0645 2.25517,-0.20091 2.48312,-0.3031 0.26758,-0.11995 0.7833,0.11081 1.45521,0.65112 1.51719,1.22006 2.4197,1.54173 4.35812,1.55333 1.28359,0.008 2.03389,-0.14322 2.90828,-0.58495 z M 70.695258,176.51101 c 0.876644,-0.68597 0.888986,-0.79744 0.163187,-1.47362 -0.910937,-0.84867 -2.389913,-0.72843 -3.223356,0.26206 -0.710104,0.84391 -1.129771,2.3434 -0.855728,3.05754 0.139231,0.36283 0.380224,0.30092 1.682718,-0.43231 0.836118,-0.47068 1.841048,-1.10683 2.233179,-1.41367 z"
         id="path5107"
         inkscape:connector-curvature="0" />
      <path
         style="fill:#f88d04;stroke-width:0.26458335"
         d="m 149.35729,276.08385 c -1.4552,-0.1251 -4.37224,-0.59169 -6.48229,-1.03688 -2.11005,-0.44519 -5.4438,-1.11267 -7.40833,-1.48328 -1.96453,-0.37062 -4.16719,-0.78624 -4.89479,-0.92362 -1.37079,-0.2588 -2.89742,-0.49317 -8.06979,-1.23889 -1.82496,-0.26312 -4.78993,-0.44213 -7.40834,-0.44729 -4.11463,-0.008 -4.47864,0.0331 -6.33131,0.7161 -1.08113,0.39858 -2.57044,1.1412 -3.30958,1.65026 -1.67381,1.1528 -2.49472,1.17265 -3.72763,0.0901 -1.15992,-1.01843 -2.138507,-3.11638 -3.744681,-8.0281 -0.666213,-2.03729 -1.420304,-4.12089 -1.67576,-4.63021 -0.567184,-1.13085 -2.441966,-7.55303 -3.050897,-10.45104 -0.244615,-1.16417 -0.557255,-2.65245 -0.694756,-3.30729 -0.137499,-0.65485 -0.272915,-3.19333 -0.300921,-5.64107 -0.04174,-3.64812 -0.122471,-4.48889 -0.447797,-4.66366 -1.72212,-0.92518 -11.292615,-1.4291 -15.55945,-0.81927 -0.973918,0.13919 -2.781726,0.37847 -4.017351,0.53172 -2.335718,0.28969 -4.912141,0.84961 -10.021819,2.17801 -2.17383,0.56515 -4.034947,1.2981 -6.711181,2.64302 -4.378753,2.20052 -5.310542,2.41023 -6.449824,1.45159 -1.039471,-0.87466 -1.424416,-2.54797 -1.430385,-6.21772 -0.0026,-1.55324 -0.181121,-3.65747 -0.396875,-4.67607 -0.215755,-1.01859 -0.392282,-2.10897 -0.392282,-2.42307 0,-0.80571 -1.89983,-7.33131 -3.175654,-10.90786 -0.597966,-1.67629 -1.002932,-3.22588 -0.915247,-3.50216 0.08651,-0.27255 0.893517,-1.02099 1.793362,-1.66321 0.899843,-0.64221 2.4535,-2.01447 3.452569,-3.04946 0.99907,-1.03499 2.204302,-2.20656 2.678295,-2.60349 0.473991,-0.39692 2.764306,-2.50762 5.089592,-4.69043 2.325282,-2.18281 4.909682,-4.55003 5.743109,-5.26048 2.303542,-1.96365 5.251876,-5.4788 6.165895,-7.35128 0.7277,-1.49078 1.271963,-3.30174 1.795854,-5.97544 0.241123,-1.23058 -0.346792,-1.33724 -2.184365,-0.39627 -3.459398,1.77145 -5.000046,2.60581 -5.61947,3.0433 -0.835655,0.59022 -1.909003,0.58982 -2.63176,-10e-4 -0.543195,-0.44402 -0.571714,-0.72362 -0.694923,-6.81302 -0.07066,-3.4925 -0.172156,-8.13594 -0.225539,-10.31875 -0.05338,-2.18281 -0.02175,-4.61795 0.0703,-5.41141 0.161708,-1.39399 0.216466,-1.47531 1.622565,-2.40966 1.692368,-1.12458 3.589113,-2.27646 4.984142,-3.02684 0.541073,-0.29105 1.679133,-1.06012 2.529025,-1.70907 l 1.545259,-1.17989 -0.153593,-1.33365 c -0.08448,-0.73342 -0.286957,-2.46466 -0.449956,-3.8471 -0.374446,-3.17581 -1.831435,-8.15834 -4.023206,-13.75834 -0.939761,-2.40109 -1.914129,-5.02047 -2.165266,-5.82083 -0.251137,-0.80037 -0.868079,-2.05775 -1.370983,-2.79418 -0.91567,-1.34086 -1.034299,-1.79292 -0.943891,-3.59683 0.04241,-0.84617 0.197292,-1.05426 1.239094,-1.66479 0.654844,-0.38377 1.190625,-0.78613 1.190625,-0.89414 0,-0.10801 0.376997,-0.41908 0.837769,-0.69127 1.180859,-0.69755 9.822228,-7.95677 12.303631,-10.33573 3.00147,-2.87754 3.980145,-2.95407 6.096587,-0.47675 1.629958,1.90788 4.88314,4.39463 7.737838,5.91483 3.340653,1.77898 9.353841,5.16199 11.614151,6.53409 2.16297,1.31301 7.5652,4.03602 8.00713,4.03602 0.1519,0 1.01087,0.28921 1.90881,0.6427 0.89794,0.35349 3.50405,1.36188 5.79134,2.24087 4.98633,1.91622 6.71871,2.76946 9.8615,4.85704 2.45171,1.62853 6.76586,5.60922 7.4213,6.84768 0.8155,1.54088 0.69132,8.40851 -0.18228,10.08112 -0.13216,0.25302 -0.54044,1.50318 -0.90729,2.77813 -1.51775,5.2747 -1.74805,5.91582 -2.3637,6.58011 -0.7202,0.77712 -4.72219,10.67919 -4.58331,11.34045 0.0529,0.25196 1.63962,1.141 3.92528,2.19934 l 3.83645,1.77644 3.84,3.83691 c 2.86991,2.86761 4.3563,4.60558 5.88378,6.87963 l 2.04379,3.0427 1.59021,6.08542 c 1.96259,7.51044 2.01089,8.52208 0.68283,14.30256 -0.86255,3.75431 -1.08426,4.32061 -4.39664,11.22973 -1.91855,4.00183 -3.64486,7.71465 -3.83623,8.25071 -0.33209,0.93028 -0.61701,6.42092 -0.34719,6.69074 0.071,0.071 3.39577,0.61464 7.38842,1.20813 3.99265,0.59349 7.52575,1.13358 7.85133,1.2002 1.16682,0.23875 1.37074,1.03437 1.89963,7.41187 0.66662,8.0382 1.23109,10.33582 4.68871,19.0851 1.50787,3.81555 2.74157,7.16587 2.74157,7.44516 0,0.81378 -0.81836,1.53405 -2.38125,2.09583 -1.76443,0.63422 -7.70168,0.92327 -11.77396,0.5732 z m 5.37316,-5.24061 c 0.39075,-0.24781 0.2747,-0.98725 -0.48852,-3.11288 -0.57415,-1.59904 -2.10651,-7.82928 -2.10651,-8.56459 0,-0.28043 -0.24757,-1.55627 -0.55014,-2.83521 -0.33967,-1.43571 -0.63605,-3.94497 -0.77469,-6.55869 -0.12349,-2.32833 -0.30166,-4.43198 -0.39592,-4.67477 -0.25967,-0.66884 -2.14157,-0.96493 -7.27508,-1.14463 -2.54662,-0.0891 -5.56392,-0.24556 -6.70512,-0.34759 -2.44107,-0.21824 -2.83616,-0.55156 -3.55576,-2.99989 l -0.45475,-1.54721 -0.92604,0.15266 c -2.4819,0.40914 -6.49616,1.58727 -9.00321,2.64232 -1.53203,0.64473 -3.06001,1.17224 -3.39551,1.17224 -1.40442,0 -6.46599,-2.44655 -8.44609,-4.08249 -0.47766,-0.39463 -1.38432,-0.69921 -2.70311,-0.90805 -2.89452,-0.45838 -6.27979,-1.33634 -7.8817,-2.04411 l -1.399406,-0.6183 -0.283609,0.71762 c -0.155985,0.39469 -0.518189,2.02731 -0.8049,3.62804 -0.552585,3.08513 -0.528261,6.84165 0.06212,9.59452 l 0.285118,1.32946 2.077367,0.30375 c 2.82316,0.4128 7.41683,1.54434 8.108,1.99721 0.31052,0.20346 1.28454,0.66248 2.16449,1.02003 3.7613,1.52836 6.13614,3.90432 6.1382,6.14113 0.001,1.42063 -0.98217,2.90764 -2.78881,4.21659 -0.7785,0.56405 -1.35823,1.11816 -1.28827,1.23135 0.07,0.11319 1.10543,0.18613 2.30107,0.16208 5.0631,-0.10181 11.12148,0.33228 13.81554,0.9899 10.18498,2.48618 14.43864,3.42728 17.33021,3.83424 3.54765,0.49931 8.37911,0.66419 8.94503,0.30527 z M 57.943751,235.79126 c 1.382448,-0.4541 2.811198,-0.90319 3.175,-0.99798 0.478867,-0.12477 0.296272,-0.18225 -0.661458,-0.20824 -2.171476,-0.0589 -4.912993,-0.74928 -6.813021,-1.71563 -1.051843,-0.53497 -1.785938,-0.7786 -1.785938,-0.59272 0,0.50838 1.062874,3.41718 1.492581,4.08478 0.465979,0.72396 0.766527,0.68665 4.592836,-0.57021 z m 13.103387,-2.89297 c 2.444189,-0.54538 3.302735,-0.58892 11.61244,-0.58892 6.330638,0 9.002099,-0.0864 9.071523,-0.29321 0.05412,-0.16127 -0.709562,-0.94855 -1.697077,-1.74951 -4.098208,-3.32399 -6.540138,-6.28537 -8.56974,-10.39269 -3.274426,-6.62648 -3.589785,-14.06892 -0.879692,-20.76055 0.882676,-2.17947 1.072655,-2.91966 0.74936,-2.91966 -0.08674,0 -0.803925,0.18785 -1.593736,0.41746 -1.422066,0.4134 -2.135235,0.36339 -4.567685,-0.32037 l -0.630597,-0.17726 0.120288,2.29176 c 0.107159,2.04163 0.240956,2.52974 1.225907,4.47227 0.608092,1.19928 1.105622,2.25991 1.105622,2.35695 0,0.0971 -0.446484,0.44496 -0.992187,0.77314 -0.545703,0.32818 -1.026007,0.61976 -1.067343,0.64795 -0.04134,0.0282 0.237017,1.10884 0.618559,2.40145 0.862965,2.92359 1.143376,7.20941 0.652875,9.97865 -1.110128,6.26752 -4.351832,11.00058 -9.558417,13.95579 l -1.427445,0.8102 1.594011,-0.15726 c 0.876705,-0.0865 2.781705,-0.42228 4.233334,-0.74619 z m 28.598217,-7.25724 c 0.790075,-1.04821 2.407175,-2.83415 3.593565,-3.96875 4.28213,-4.09525 5.14668,-5.02278 7.59515,-8.14834 2.64714,-3.37919 4.30192,-6.46093 4.97251,-9.26042 0.76074,-3.17582 -0.11954,-5.67833 -3.32528,-9.45336 -2.54805,-3.00054 -4.59922,-4.51333 -9.31313,-6.86867 -3.417407,-1.70752 -4.490084,-2.12079 -5.975487,-2.30214 -1.932826,-0.23598 -2.195758,-0.12241 -2.203214,0.95165 -0.0068,0.98274 -2.156402,9.1431 -2.683563,10.1875 -0.272518,0.5399 -0.495488,1.10654 -0.495488,1.2592 0,0.32074 -2.11846,5.33491 -2.907033,6.88064 -0.930142,1.82323 -0.660736,2.38648 1.142736,2.38911 0.461039,8e-4 1.55263,0.29551 2.425755,0.65518 0.873125,0.35967 1.891803,0.65678 2.263731,0.66023 1.077306,0.01 3.940108,1.07349 4.200755,1.56051 0.154662,0.28899 0.05607,1.18165 -0.282054,2.55388 -0.285903,1.16028 -0.63023,3.2407 -0.765167,4.62314 -0.13494,1.38245 -0.424437,3.82323 -0.643327,5.42396 -0.218889,1.60073 -0.400306,3.61578 -0.403148,4.47789 l -0.0052,1.56748 0.685678,-0.64144 c 0.377121,-0.35278 1.3321,-1.49905 2.122175,-2.54725 z m 42.885575,-23.80097 c 0.22371,-0.58296 -0.31893,-3.70885 -1.07204,-6.1755 -0.48187,-1.57829 -0.75047,-2.0548 -1.31254,-2.32852 -0.38867,-0.18928 -0.82519,-0.56559 -0.97004,-0.83625 -0.14485,-0.27065 -0.68949,-0.75546 -1.21031,-1.07735 -1.46691,-0.9066 -3.10772,-0.62752 -4.38949,0.74661 -1.29607,1.38945 -1.71411,2.89686 -1.32666,4.78381 0.29927,1.45753 1.25313,2.98967 2.16512,3.47775 0.28286,0.15138 0.96263,0.31878 1.5106,0.37198 0.54797,0.0532 1.46145,0.29753 2.02996,0.54294 2.07434,0.89543 4.32809,1.13903 4.5754,0.49453 z m -58.354082,-9.03041 c 0.385442,-0.54534 1.479325,-1.8324 2.430848,-2.86014 1.605913,-1.73453 1.697096,-1.89681 1.270852,-2.26177 -0.252555,-0.21625 -0.618868,-0.33995 -0.81403,-0.27489 -0.200993,0.067 -0.279646,-0.003 -0.181404,-0.16235 0.09539,-0.15434 0.05243,-0.35541 -0.09546,-0.44682 -0.147894,-0.0914 -0.273119,-0.66517 -0.278275,-1.27505 -0.0052,-0.60987 -0.179531,-1.40652 -0.387499,-1.77032 -0.207967,-0.3638 -0.382344,-0.74157 -0.387498,-0.83949 -0.0052,-0.0979 0.864804,-0.11192 1.933247,-0.0311 1.696929,0.12834 1.965397,0.0876 2.12267,-0.32226 0.101587,-0.26474 0.0045,-0.73713 -0.222832,-1.08406 -0.614683,-0.93812 -0.503428,-1.82966 0.293476,-2.35181 0.547129,-0.3585 0.618003,-0.50589 0.330729,-0.68784 -0.657339,-0.41632 -3.223953,-0.25169 -4.400243,0.28225 -1.025274,0.46539 -1.337556,0.85406 -1.75341,2.1823 -0.130908,0.41812 -0.232515,0.42352 -1.245415,0.0662 -1.720503,-0.60703 -4.098602,-0.49803 -5.732703,0.26275 -1.267484,0.5901 -1.388457,0.72303 -1.382154,1.51877 0.0038,0.47964 -0.264091,1.92707 -0.595313,3.21652 l -0.60222,2.34445 1.158507,1.02899 c 0.637177,0.56594 1.028274,1.02898 0.8691,1.02898 -0.15917,0 -0.698867,-0.35951 -1.199321,-0.79892 l -0.909921,-0.79892 -1.196483,1.99066 c -1.140005,1.89669 -1.171982,2.00377 -0.677476,2.26842 0.43302,0.23175 0.720884,0.10006 1.737572,-0.79486 0.98149,-0.86394 1.420256,-1.07263 2.255263,-1.07263 0.71706,0 0.978411,-0.0943 0.847654,-0.30587 -0.136975,-0.22163 0.09556,-0.25887 0.84428,-0.13521 0.56833,0.0939 1.360746,0.17199 1.760929,0.17359 0.400182,0.002 0.727604,0.10042 0.727604,0.2196 0,0.31455 2.200622,2.65005 2.513542,2.66759 0.14552,0.008 0.579945,-0.43135 0.965388,-0.97669 z m 46.006102,-2.5029 c 3.15816,-1.59546 3.13451,-5.18206 -0.0446,-6.76054 -1.36418,-0.67733 -3.7758,-0.83277 -5.09624,-0.32847 -0.66259,0.25306 -0.89715,0.20366 -1.71979,-0.36216 -1.62878,-1.12032 -2.76658,-1.37159 -6.67514,-1.47415 -0.0915,-0.002 -0.3165,-0.36689 -0.50004,-0.80998 -0.18353,-0.44308 -0.91708,-1.31594 -1.63011,-1.93969 l -1.29643,-1.13407 0.73813,-1.4227 c 0.63912,-1.23189 0.73812,-1.72581 0.73812,-3.68271 0,-2.61624 -0.54191,-4.02744 -2.18719,-5.69574 -1.42135,-1.44124 -3.01678,-2.09578 -4.98517,-2.0452 -2.5323,0.0651 -2.84885,0.27475 -3.67373,2.43344 -0.86008,2.2508 -1.73354,3.36429 -2.86804,3.65623 -0.72739,0.18717 -0.84879,0.34452 -0.92008,1.1925 -0.0921,1.09574 -0.254427,1.15849 -1.427595,0.55182 -1.136792,-0.58786 -3.911616,-0.40692 -4.883118,0.31841 -1.064077,0.79445 -1.299509,1.29002 -1.005337,2.11618 0.744228,2.09015 4.757851,2.65768 6.777395,0.95835 0.789375,-0.66421 0.853365,-0.67673 1.125735,-0.22022 0.89464,1.49944 2.16603,2.87856 3.22679,3.5002 0.991,0.58077 1.17473,0.8054 1.03395,1.2641 -0.72282,2.35504 -0.69663,2.51151 0.52597,3.14283 0.43656,0.22543 2.2225,1.37796 3.96875,2.56117 2.42815,1.64524 3.31854,2.11558 3.78521,1.99951 0.33636,-0.0837 1.30783,0.10259 2.16468,0.41501 1.24841,0.45519 1.96176,0.54369 3.62312,0.44948 1.13776,-0.0645 2.25517,-0.20091 2.48312,-0.3031 0.26758,-0.11995 0.7833,0.11081 1.45521,0.65112 1.51719,1.22006 2.4197,1.54173 4.35812,1.55333 1.28359,0.008 2.03389,-0.14322 2.90828,-0.58495 z M 64.161642,178.75922 c -0.204621,-1.65353 -0.242782,-1.74205 -0.644038,-1.49406 -0.294275,0.18187 -0.400119,2.84746 -0.124026,3.12355 0.08699,0.087 0.336682,0.0897 0.554881,0.006 0.319085,-0.12245 0.360805,-0.4425 0.213183,-1.63542 z m 6.533616,-2.24821 c 0.876644,-0.68597 0.888986,-0.79744 0.163187,-1.47362 -0.910937,-0.84867 -2.389913,-0.72843 -3.223356,0.26206 -0.710104,0.84391 -1.129771,2.3434 -0.855728,3.05754 0.139231,0.36283 0.380224,0.30092 1.682718,-0.43231 0.836118,-0.47068 1.841048,-1.10683 2.233179,-1.41367 z m 17.428197,-2.32657 c 0.339875,-2.09097 2.401903,-4.41696 4.38378,-4.94495 0.729562,-0.19436 0.764636,-0.27816 0.922666,-2.2043 0.09035,-1.10124 0.252423,-2.14488 0.360161,-2.31921 0.107739,-0.17432 0.112107,-1.32271 0.0097,-2.55199 l -0.186177,-2.23504 -1.921645,-1.29671 c -3.849587,-2.59767 -5.915501,-5.67769 -6.095971,-9.08832 -0.04477,-0.84611 -0.14128,-1.59826 -0.214463,-1.67144 -0.07318,-0.0732 -0.710449,0.1591 -1.416143,0.5162 -1.99607,1.01004 -5.724284,2.25109 -8.386072,2.79156 l -2.422007,0.49178 0.05182,0.89576 c 0.0285,0.49266 0.130654,1.61974 0.226999,2.50462 0.164761,1.51321 0.232466,1.63899 1.138804,2.11577 1.471996,0.77434 3.726683,3.0101 4.424685,4.38754 0.762855,1.50542 1.095711,3.57141 0.888352,5.51387 -0.146198,1.36956 -0.101764,1.52131 0.754978,2.57837 0.500676,0.61774 1.230471,1.74273 1.621766,2.49998 0.63667,1.23211 0.839354,1.40946 1.928328,1.68726 0.669285,0.17074 1.674731,0.54734 2.234325,0.83691 1.311941,0.67887 1.51302,0.61868 1.696103,-0.50766 z m 5.82835,-35.55009 c 5.260565,-2.66573 12.488045,-4.03184 19.554445,-3.69609 2.51986,0.11973 3.45499,0.0881 3.175,-0.10731 -0.21828,-0.15236 -0.56128,-0.27884 -0.76223,-0.28107 -0.4029,-0.004 -4.19599,-1.62947 -9.29193,-3.98078 -8.301209,-3.83023 -7.654943,-3.71465 -9.549781,-1.70797 -0.786738,0.83317 -2.353167,2.17627 -3.480953,2.98465 -1.127787,0.80839 -2.050521,1.61792 -2.050521,1.79897 0,0.18104 0.189484,1.0688 0.421076,1.97279 0.231593,0.904 0.362919,1.94786 0.291836,2.31971 -0.123217,0.64456 0.0094,1.37108 0.250232,1.37108 0.06203,0 0.711301,-0.3033 1.442826,-0.67398 z"
         id="path5105"
         inkscape:connector-curvature="0" />
      <path
         style="fill:#126feb;stroke-width:0.26458335"
         d="m 149.35729,276.08385 c -1.4552,-0.1251 -4.37224,-0.59169 -6.48229,-1.03688 -2.11005,-0.44519 -5.4438,-1.11267 -7.40833,-1.48328 -1.96453,-0.37062 -4.16719,-0.78624 -4.89479,-0.92362 -1.37079,-0.2588 -2.89742,-0.49317 -8.06979,-1.23889 -1.82496,-0.26312 -4.78993,-0.44213 -7.40834,-0.44729 -4.11463,-0.008 -4.47864,0.0331 -6.33131,0.7161 -1.08113,0.39858 -2.57044,1.1412 -3.30958,1.65026 -1.67381,1.1528 -2.49472,1.17265 -3.72763,0.0901 -1.15992,-1.01843 -2.138507,-3.11638 -3.744681,-8.0281 -0.666213,-2.03729 -1.420304,-4.12089 -1.67576,-4.63021 -0.567184,-1.13085 -2.441966,-7.55303 -3.050897,-10.45104 -0.244615,-1.16417 -0.557255,-2.65245 -0.694756,-3.30729 -0.137499,-0.65485 -0.272915,-3.19333 -0.300921,-5.64107 -0.04174,-3.64812 -0.122471,-4.48889 -0.447797,-4.66366 -1.72212,-0.92518 -11.292615,-1.4291 -15.55945,-0.81927 -0.973918,0.13919 -2.781726,0.37847 -4.017351,0.53172 -2.335718,0.28969 -4.912141,0.84961 -10.021819,2.17801 -2.17383,0.56515 -4.034947,1.2981 -6.711181,2.64302 -4.378753,2.20052 -5.310542,2.41023 -6.449824,1.45159 -1.039471,-0.87466 -1.424416,-2.54797 -1.430385,-6.21772 -0.0026,-1.55324 -0.181121,-3.65747 -0.396875,-4.67607 -0.215755,-1.01859 -0.392282,-2.10897 -0.392282,-2.42307 0,-0.80571 -1.89983,-7.33131 -3.175654,-10.90786 -0.597966,-1.67629 -1.002932,-3.22588 -0.915247,-3.50216 0.08651,-0.27255 0.893517,-1.02099 1.793362,-1.66321 0.899843,-0.64221 2.4535,-2.01447 3.452569,-3.04946 0.99907,-1.03499 2.204302,-2.20656 2.678295,-2.60349 0.473991,-0.39692 2.764306,-2.50762 5.089592,-4.69043 2.325282,-2.18281 4.909682,-4.55003 5.743109,-5.26048 2.303542,-1.96365 5.251876,-5.4788 6.165895,-7.35128 0.7277,-1.49078 1.271963,-3.30174 1.795854,-5.97544 0.241123,-1.23058 -0.346792,-1.33724 -2.184365,-0.39627 -3.459398,1.77145 -5.000046,2.60581 -5.61947,3.0433 -0.835655,0.59022 -1.909003,0.58982 -2.63176,-10e-4 -0.543195,-0.44402 -0.571714,-0.72362 -0.694923,-6.81302 -0.07066,-3.4925 -0.172156,-8.13594 -0.225539,-10.31875 -0.05338,-2.18281 -0.02175,-4.61795 0.0703,-5.41141 0.161708,-1.39399 0.216466,-1.47531 1.622565,-2.40966 1.692368,-1.12458 3.589113,-2.27646 4.984142,-3.02684 0.541073,-0.29105 1.679133,-1.06012 2.529025,-1.70907 l 1.545259,-1.17989 -0.153593,-1.33365 c -0.08448,-0.73342 -0.286957,-2.46466 -0.449956,-3.8471 -0.374446,-3.17581 -1.831435,-8.15834 -4.023206,-13.75834 -0.939761,-2.40109 -1.914129,-5.02047 -2.165266,-5.82083 -0.251137,-0.80037 -0.868079,-2.05775 -1.370983,-2.79418 -0.91567,-1.34086 -1.034299,-1.79292 -0.943891,-3.59683 0.04241,-0.84617 0.197292,-1.05426 1.239094,-1.66479 0.654844,-0.38377 1.190625,-0.78613 1.190625,-0.89414 0,-0.10801 0.376997,-0.41908 0.837769,-0.69127 1.180859,-0.69755 9.822228,-7.95677 12.303631,-10.33573 3.00147,-2.87754 3.980145,-2.95407 6.096587,-0.47675 1.629958,1.90788 4.88314,4.39463 7.737838,5.91483 3.340653,1.77898 9.353841,5.16199 11.614151,6.53409 2.16297,1.31301 7.5652,4.03602 8.00713,4.03602 0.1519,0 1.01087,0.28921 1.90881,0.6427 0.89794,0.35349 3.50405,1.36188 5.79134,2.24087 4.98633,1.91622 6.71871,2.76946 9.8615,4.85704 2.45171,1.62853 6.76586,5.60922 7.4213,6.84768 0.8155,1.54088 0.69132,8.40851 -0.18228,10.08112 -0.13216,0.25302 -0.54044,1.50318 -0.90729,2.77813 -1.51775,5.2747 -1.74805,5.91582 -2.3637,6.58011 -0.7202,0.77712 -4.72219,10.67919 -4.58331,11.34045 0.0529,0.25196 1.63962,1.141 3.92528,2.19934 l 3.83645,1.77644 3.84,3.83691 c 2.86991,2.86761 4.3563,4.60558 5.88378,6.87963 l 2.04379,3.0427 1.59021,6.08542 c 1.96259,7.51044 2.01089,8.52208 0.68283,14.30256 -0.86255,3.75431 -1.08426,4.32061 -4.39664,11.22973 -1.91855,4.00183 -3.64486,7.71465 -3.83623,8.25071 -0.33209,0.93028 -0.61701,6.42092 -0.34719,6.69074 0.071,0.071 3.39577,0.61464 7.38842,1.20813 3.99265,0.59349 7.52575,1.13358 7.85133,1.2002 1.16682,0.23875 1.37074,1.03437 1.89963,7.41187 0.66662,8.0382 1.23109,10.33582 4.68871,19.0851 1.50787,3.81555 2.74157,7.16587 2.74157,7.44516 0,0.81378 -0.81836,1.53405 -2.38125,2.09583 -1.76443,0.63422 -7.70168,0.92327 -11.77396,0.5732 z m 5.37316,-5.24061 c 0.39075,-0.24781 0.2747,-0.98725 -0.48852,-3.11288 -0.57415,-1.59904 -2.10651,-7.82928 -2.10651,-8.56459 0,-0.28043 -0.24757,-1.55627 -0.55014,-2.83521 -0.33967,-1.43571 -0.63605,-3.94497 -0.77469,-6.55869 -0.12349,-2.32833 -0.30166,-4.43198 -0.39592,-4.67477 -0.25967,-0.66884 -2.14157,-0.96493 -7.27508,-1.14463 -2.54662,-0.0891 -5.56392,-0.24556 -6.70512,-0.34759 -2.44107,-0.21824 -2.83616,-0.55156 -3.55576,-2.99989 l -0.45475,-1.54721 -0.92604,0.15266 c -2.4819,0.40914 -6.49616,1.58727 -9.00321,2.64232 -1.53203,0.64473 -3.06001,1.17224 -3.39551,1.17224 -1.40442,0 -6.46599,-2.44655 -8.44609,-4.08249 -0.47766,-0.39463 -1.38432,-0.69921 -2.70311,-0.90805 -2.89452,-0.45838 -6.27979,-1.33634 -7.8817,-2.04411 l -1.399406,-0.6183 -0.283609,0.71762 c -0.155985,0.39469 -0.518189,2.02731 -0.8049,3.62804 -0.552585,3.08513 -0.528261,6.84165 0.06212,9.59452 l 0.285118,1.32946 2.077367,0.30375 c 2.82316,0.4128 7.41683,1.54434 8.108,1.99721 0.31052,0.20346 1.28454,0.66248 2.16449,1.02003 3.7613,1.52836 6.13614,3.90432 6.1382,6.14113 0.001,1.42063 -0.98217,2.90764 -2.78881,4.21659 -0.7785,0.56405 -1.35823,1.11816 -1.28827,1.23135 0.07,0.11319 1.10543,0.18613 2.30107,0.16208 5.0631,-0.10181 11.12148,0.33228 13.81554,0.9899 10.18498,2.48618 14.43864,3.42728 17.33021,3.83424 3.54765,0.49931 8.37911,0.66419 8.94503,0.30527 z M 57.943751,235.79126 c 1.382448,-0.4541 2.811198,-0.90319 3.175,-0.99798 0.478867,-0.12477 0.296272,-0.18225 -0.661458,-0.20824 -2.171476,-0.0589 -4.912993,-0.74928 -6.813021,-1.71563 -1.051843,-0.53497 -1.785938,-0.7786 -1.785938,-0.59272 0,0.50838 1.062874,3.41718 1.492581,4.08478 0.465979,0.72396 0.766527,0.68665 4.592836,-0.57021 z m 13.103387,-2.89297 c 2.444189,-0.54538 3.302735,-0.58892 11.61244,-0.58892 6.330638,0 9.002099,-0.0864 9.071523,-0.29321 0.05412,-0.16127 -0.709562,-0.94855 -1.697077,-1.74951 -4.098208,-3.32399 -6.540138,-6.28537 -8.56974,-10.39269 -3.274426,-6.62648 -3.589785,-14.06892 -0.879692,-20.76055 0.882676,-2.17947 1.072655,-2.91966 0.74936,-2.91966 -0.08674,0 -0.803925,0.18785 -1.593736,0.41746 -1.422066,0.4134 -2.135235,0.36339 -4.567685,-0.32037 l -0.630597,-0.17726 0.120288,2.29176 c 0.107159,2.04163 0.240956,2.52974 1.225907,4.47227 0.608092,1.19928 1.105622,2.25991 1.105622,2.35695 0,0.0971 -0.446484,0.44496 -0.992187,0.77314 -0.545703,0.32818 -1.026007,0.61976 -1.067343,0.64795 -0.04134,0.0282 0.237017,1.10884 0.618559,2.40145 0.862965,2.92359 1.143376,7.20941 0.652875,9.97865 -1.110128,6.26752 -4.351832,11.00058 -9.558417,13.95579 l -1.427445,0.8102 1.594011,-0.15726 c 0.876705,-0.0865 2.781705,-0.42228 4.233334,-0.74619 z m 28.598217,-7.25724 c 0.790075,-1.04821 2.407175,-2.83415 3.593565,-3.96875 4.28213,-4.09525 5.14668,-5.02278 7.59515,-8.14834 2.64714,-3.37919 4.30192,-6.46093 4.97251,-9.26042 0.76074,-3.17582 -0.11954,-5.67833 -3.32528,-9.45336 -2.54805,-3.00054 -4.59922,-4.51333 -9.31313,-6.86867 -3.417407,-1.70752 -4.490084,-2.12079 -5.975487,-2.30214 -1.932826,-0.23598 -2.195758,-0.12241 -2.203214,0.95165 -0.0068,0.98274 -2.156402,9.1431 -2.683563,10.1875 -0.272518,0.5399 -0.495488,1.10654 -0.495488,1.2592 0,0.32074 -2.11846,5.33491 -2.907033,6.88064 -0.930142,1.82323 -0.660736,2.38648 1.142736,2.38911 0.461039,8e-4 1.55263,0.29551 2.425755,0.65518 0.873125,0.35967 1.891803,0.65678 2.263731,0.66023 1.077306,0.01 3.940108,1.07349 4.200755,1.56051 0.154662,0.28899 0.05607,1.18165 -0.282054,2.55388 -0.285903,1.16028 -0.63023,3.2407 -0.765167,4.62314 -0.13494,1.38245 -0.424437,3.82323 -0.643327,5.42396 -0.218889,1.60073 -0.400306,3.61578 -0.403148,4.47789 l -0.0052,1.56748 0.685678,-0.64144 c 0.377121,-0.35278 1.3321,-1.49905 2.122175,-2.54725 z m 43.522265,-19.45928 c 0.0356,-1.76456 -0.0427,-2.93985 -0.20722,-3.10844 -0.0708,-0.0725 -0.29752,0.0991 -0.50391,0.3813 -0.66063,0.90347 -0.3391,4.1162 0.41196,4.1162 0.14913,0 0.28375,-0.62508 0.29917,-1.38906 z m -9.49077,-3.3567 c 0.68909,-0.34971 1.51351,-0.91325 1.83206,-1.25232 0.71336,-0.75934 1.13427,-0.76855 2.73644,-0.0598 0.81413,0.36013 1.87695,0.57031 3.0102,0.59531 l 1.75174,0.0386 -0.0825,-1.19062 c -0.12452,-1.79774 -1.28869,-6.46905 -1.92895,-7.74008 -0.31127,-0.61791 -0.9795,-1.63343 -1.48498,-2.25672 l -0.91904,-1.13326 -1.89333,0.15368 c -1.7822,0.14467 -1.96615,0.10691 -3.1343,-0.64334 -1.17041,-0.75169 -1.22788,-0.84269 -1.01066,-1.60011 0.13475,-0.46983 0.1282,-1.1592 -0.0158,-1.66124 -0.13536,-0.47198 -0.24611,-1.16512 -0.24611,-1.54031 0,-0.56978 -0.31605,-0.86254 -1.91823,-1.7769 -1.05503,-0.6021 -2.87073,-1.52568 -4.0349,-2.05239 -1.16416,-0.52671 -2.71198,-1.23576 -3.43958,-1.57566 -1.97719,-0.92366 -3.90555,-1.69024 -4.46988,-1.77692 -0.27562,-0.0423 -0.74462,-0.40341 -1.04222,-0.80239 -0.51463,-0.68995 -0.51998,-0.76972 -0.10944,-1.63064 0.23741,-0.49786 0.95688,-1.60016 1.59881,-2.44956 1.80726,-2.39134 1.82856,-2.46028 1.24974,-4.04388 -0.9209,-2.51946 -2.32353,-3.89335 -4.89889,-4.79852 -1.84483,-0.6484 -3.84733,-0.63234 -5.68958,0.0456 -0.80036,0.29455 -2.2199,0.70986 -3.15452,0.92291 -0.93462,0.21305 -1.85027,0.51265 -2.03478,0.66578 -0.1845,0.15312 -0.64407,1.08603 -1.02125,2.07311 -0.72331,1.89288 -1.23619,2.48727 -2.85097,3.30408 -0.932675,0.47177 -1.02117,0.47501 -1.485998,0.0543 -0.271843,-0.24602 -1.242695,-0.56784 -2.157444,-0.71515 -0.914752,-0.14732 -1.880021,-0.3839 -2.145038,-0.52573 -0.811168,-0.43412 -2.744118,0.23096 -4.074385,1.40191 -1.368004,1.20417 -1.857036,2.02076 -2.10792,3.51987 -0.301802,1.80334 -0.271142,1.7873 -1.783839,0.93358 -0.768416,-0.43367 -1.998866,-0.91754 -2.734334,-1.07527 -1.287031,-0.27602 -1.363231,-0.34344 -2.030674,-1.79691 -0.86758,-1.8893 -2.777744,-3.82329 -4.687898,-4.74638 -1.203945,-0.58181 -1.843879,-0.7103 -3.587555,-0.72032 -1.878065,-0.0108 -2.32546,0.0879 -3.888676,0.85744 -1.939901,0.95501 -3.530899,2.54382 -4.451361,4.44524 -0.31083,0.64208 -0.651195,1.16743 -0.75637,1.16743 -0.105171,0 -0.455303,-0.35719 -0.778068,-0.79375 -0.322765,-0.43656 -0.779703,-0.79375 -1.015418,-0.79375 -0.376396,0 -0.407611,0.2953 -0.256399,2.42561 0.0947,1.33409 0.237003,2.49044 0.316235,2.56967 0.07923,0.0792 0.375158,-2.6e-4 0.657606,-0.17665 0.282448,-0.17639 0.563517,-0.32071 0.624596,-0.32071 0.06108,0 0.195467,0.62507 0.298638,1.38906 0.202277,1.49788 0.527775,2.3151 0.922094,2.3151 0.218041,0 3.698278,-1.93839 4.760812,-2.65164 1.660393,-1.11456 2.05558,-1.31524 2.591713,-1.31612 0.994019,-0.002 1.782353,1.04234 2.133,2.82465 0.466624,2.37181 0.438539,5.30627 -0.06381,6.66648 -0.707591,1.91596 -0.582285,2.49756 0.800304,3.71456 0.67533,0.59446 1.096192,1.08082 0.935249,1.08082 -0.160946,0 -0.702093,-0.35951 -1.202547,-0.79892 l -0.909921,-0.79892 -1.196483,1.99066 c -1.140005,1.89669 -1.171982,2.00377 -0.677476,2.26842 0.43302,0.23175 0.720884,0.10006 1.737572,-0.79486 0.98149,-0.86394 1.420256,-1.07263 2.255263,-1.07263 0.717074,0 0.978413,-0.0943 0.847651,-0.30588 -0.135808,-0.21974 0.05539,-0.257 0.678915,-0.13229 0.47738,0.0955 1.269799,0.17359 1.760932,0.17359 0.491133,0 0.892969,0.0978 0.892969,0.21725 0,0.28334 2.310789,2.69488 2.575237,2.68752 0.111588,-0.003 0.51825,-0.45184 0.903693,-0.99718 0.385442,-0.54534 1.490506,-1.84448 2.455695,-2.88698 1.564992,-1.69033 1.703891,-1.92551 1.283571,-2.17328 -0.373692,-0.22029 -0.298257,-0.24554 0.364178,-0.1219 1.099039,0.20515 1.365631,-0.30286 1.747792,-3.33052 0.2627,-2.08123 0.244832,-2.40732 -0.166298,-3.03478 -0.897308,-1.36947 0.181607,-2.26638 2.726274,-2.26638 2.013128,0 3.868979,0.6338 8.747363,2.98735 8.64209,4.16935 14.69311,9.00835 17.33042,13.85916 0.61935,1.13916 1.22985,2.06117 1.35668,2.0489 0.12683,-0.0123 0.64549,-0.78617 1.15258,-1.71979 l 0.92197,-1.6975 0.17098,1.86699 c 0.28491,3.11084 1.62111,5.13126 4.27953,6.47091 1.50443,0.75813 1.82162,0.82043 3.75971,0.73851 1.58303,-0.0669 2.43254,-0.24976 3.36956,-0.72529 z m -11.04036,-11.19539 c 0.10123,-0.76398 0.27822,-1.48939 0.3933,-1.61201 0.22468,-0.2394 1.32438,0.23972 1.32438,0.57701 0,0.25246 -1.58343,2.42407 -1.76751,2.42407 -0.0738,0 -0.0514,-0.62508 0.0498,-1.38907 z M 64.161642,178.75922 c -0.204621,-1.65353 -0.242782,-1.74205 -0.644038,-1.49406 -0.294275,0.18187 -0.400119,2.84746 -0.124026,3.12355 0.08699,0.087 0.336682,0.0897 0.554881,0.006 0.319085,-0.12245 0.360805,-0.4425 0.213183,-1.63542 z m 23.961813,-4.57478 c 0.339875,-2.09097 2.401903,-4.41696 4.38378,-4.94495 0.729562,-0.19436 0.764636,-0.27816 0.922666,-2.2043 0.09035,-1.10124 0.252423,-2.14488 0.360161,-2.31921 0.107739,-0.17432 0.112107,-1.32271 0.0097,-2.55199 l -0.186177,-2.23504 -1.921645,-1.29671 c -3.849587,-2.59767 -5.915501,-5.67769 -6.095971,-9.08832 -0.04477,-0.84611 -0.14128,-1.59826 -0.214463,-1.67144 -0.07318,-0.0732 -0.710449,0.1591 -1.416143,0.5162 -1.99607,1.01004 -5.724284,2.25109 -8.386072,2.79156 l -2.422007,0.49178 0.05182,0.89576 c 0.0285,0.49266 0.130654,1.61974 0.226999,2.50462 0.164761,1.51321 0.232466,1.63899 1.138804,2.11577 1.471996,0.77434 3.726683,3.0101 4.424685,4.38754 0.762855,1.50542 1.095711,3.57141 0.888352,5.51387 -0.146198,1.36956 -0.101764,1.52131 0.754978,2.57837 0.500676,0.61774 1.230471,1.74273 1.621766,2.49998 0.63667,1.23211 0.839354,1.40946 1.928328,1.68726 0.669285,0.17074 1.674731,0.54734 2.234325,0.83691 1.311941,0.67887 1.51302,0.61868 1.696103,-0.50766 z m 5.82835,-35.55009 c 5.260565,-2.66573 12.488045,-4.03184 19.554445,-3.69609 2.51986,0.11973 3.45499,0.0881 3.175,-0.10731 -0.21828,-0.15236 -0.56128,-0.27884 -0.76223,-0.28107 -0.4029,-0.004 -4.19599,-1.62947 -9.29193,-3.98078 -8.301209,-3.83023 -7.654943,-3.71465 -9.549781,-1.70797 -0.786738,0.83317 -2.353167,2.17627 -3.480953,2.98465 -1.127787,0.80839 -2.050521,1.61792 -2.050521,1.79897 0,0.18104 0.189484,1.0688 0.421076,1.97279 0.231593,0.904 0.362919,1.94786 0.291836,2.31971 -0.123217,0.64456 0.0094,1.37108 0.250232,1.37108 0.06203,0 0.711301,-0.3033 1.442826,-0.67398 z"
         id="path5103"
         inkscape:connector-curvature="0" />
      <path
         style="fill:#0586b6;stroke-width:0.26458335"
         d="m 149.35729,276.08385 c -1.4552,-0.1251 -4.37224,-0.59169 -6.48229,-1.03688 -2.11005,-0.44519 -5.4438,-1.11267 -7.40833,-1.48328 -1.96453,-0.37062 -4.16719,-0.78624 -4.89479,-0.92362 -1.37079,-0.2588 -2.89742,-0.49317 -8.06979,-1.23889 -1.82496,-0.26312 -4.78993,-0.44213 -7.40834,-0.44729 -4.11463,-0.008 -4.47864,0.0331 -6.33131,0.7161 -1.08113,0.39858 -2.57044,1.1412 -3.30958,1.65026 -1.67381,1.1528 -2.49472,1.17265 -3.72763,0.0901 -1.15992,-1.01843 -2.138507,-3.11638 -3.744681,-8.0281 -0.666213,-2.03729 -1.420304,-4.12089 -1.67576,-4.63021 -0.567184,-1.13085 -2.441966,-7.55303 -3.050897,-10.45104 -0.244615,-1.16417 -0.557255,-2.65245 -0.694756,-3.30729 -0.137499,-0.65485 -0.272915,-3.19333 -0.300921,-5.64107 -0.04174,-3.64812 -0.122471,-4.48889 -0.447797,-4.66366 -1.72212,-0.92518 -11.292615,-1.4291 -15.55945,-0.81927 -0.973918,0.13919 -2.781726,0.37847 -4.017351,0.53172 -2.335718,0.28969 -4.912141,0.84961 -10.021819,2.17801 -2.17383,0.56515 -4.034947,1.2981 -6.711181,2.64302 -4.378753,2.20052 -5.310542,2.41023 -6.449824,1.45159 -1.039471,-0.87466 -1.424416,-2.54797 -1.430385,-6.21772 -0.0026,-1.55324 -0.181121,-3.65747 -0.396875,-4.67607 -0.215755,-1.01859 -0.392282,-2.10897 -0.392282,-2.42307 0,-0.80571 -1.89983,-7.33131 -3.175654,-10.90786 -0.597966,-1.67629 -1.002932,-3.22588 -0.915247,-3.50216 0.08651,-0.27255 0.893517,-1.02099 1.793362,-1.66321 0.899843,-0.64221 2.4535,-2.01447 3.452569,-3.04946 0.99907,-1.03499 2.204302,-2.20656 2.678295,-2.60349 0.473991,-0.39692 2.764306,-2.50762 5.089592,-4.69043 2.325282,-2.18281 4.909682,-4.55003 5.743109,-5.26048 2.303542,-1.96365 5.251876,-5.4788 6.165895,-7.35128 0.7277,-1.49078 1.271963,-3.30174 1.795854,-5.97544 0.241123,-1.23058 -0.346792,-1.33724 -2.184365,-0.39627 -3.459398,1.77145 -5.000046,2.60581 -5.61947,3.0433 -0.835655,0.59022 -1.909003,0.58982 -2.63176,-10e-4 -0.543195,-0.44402 -0.571714,-0.72362 -0.694923,-6.81302 -0.07066,-3.4925 -0.172156,-8.13594 -0.225539,-10.31875 -0.05338,-2.18281 -0.02175,-4.61795 0.0703,-5.41141 0.161708,-1.39399 0.216466,-1.47531 1.622565,-2.40966 1.692368,-1.12458 3.589113,-2.27646 4.984142,-3.02684 0.541073,-0.29105 1.679133,-1.06012 2.529025,-1.70907 l 1.545259,-1.17989 -0.153593,-1.33365 c -0.08448,-0.73342 -0.286957,-2.46466 -0.449956,-3.8471 -0.374446,-3.17581 -1.831435,-8.15834 -4.023206,-13.75834 -0.939761,-2.40109 -1.914129,-5.02047 -2.165266,-5.82083 -0.251137,-0.80037 -0.868079,-2.05775 -1.370983,-2.79418 -0.91567,-1.34086 -1.034299,-1.79292 -0.943891,-3.59683 0.04241,-0.84617 0.197292,-1.05426 1.239094,-1.66479 0.654844,-0.38377 1.190625,-0.78613 1.190625,-0.89414 0,-0.10801 0.376997,-0.41908 0.837769,-0.69127 1.180859,-0.69755 9.822228,-7.95677 12.303631,-10.33573 3.00147,-2.87754 3.980145,-2.95407 6.096587,-0.47675 1.629958,1.90788 4.88314,4.39463 7.737838,5.91483 3.340653,1.77898 9.353841,5.16199 11.614151,6.53409 2.16297,1.31301 7.5652,4.03602 8.00713,4.03602 0.1519,0 1.01087,0.28921 1.90881,0.6427 0.89794,0.35349 3.50405,1.36188 5.79134,2.24087 4.98633,1.91622 6.71871,2.76946 9.8615,4.85704 2.45171,1.62853 6.76586,5.60922 7.4213,6.84768 0.8155,1.54088 0.69132,8.40851 -0.18228,10.08112 -0.13216,0.25302 -0.54044,1.50318 -0.90729,2.77813 -1.51775,5.2747 -1.74805,5.91582 -2.3637,6.58011 -0.7202,0.77712 -4.72219,10.67919 -4.58331,11.34045 0.0529,0.25196 1.63962,1.141 3.92528,2.19934 l 3.83645,1.77644 3.84,3.83691 c 2.86991,2.86761 4.3563,4.60558 5.88378,6.87963 l 2.04379,3.0427 1.59021,6.08542 c 1.96259,7.51044 2.01089,8.52208 0.68283,14.30256 -0.86255,3.75431 -1.08426,4.32061 -4.39664,11.22973 -1.91855,4.00183 -3.64486,7.71465 -3.83623,8.25071 -0.33209,0.93028 -0.61701,6.42092 -0.34719,6.69074 0.071,0.071 3.39577,0.61464 7.38842,1.20813 3.99265,0.59349 7.52575,1.13358 7.85133,1.2002 1.16682,0.23875 1.37074,1.03437 1.89963,7.41187 0.66662,8.0382 1.23109,10.33582 4.68871,19.0851 1.50787,3.81555 2.74157,7.16587 2.74157,7.44516 0,0.81378 -0.81836,1.53405 -2.38125,2.09583 -1.76443,0.63422 -7.70168,0.92327 -11.77396,0.5732 z m 5.37316,-5.24061 c 0.39075,-0.24781 0.2747,-0.98725 -0.48852,-3.11288 -0.57415,-1.59904 -2.10651,-7.82928 -2.10651,-8.56459 0,-0.28043 -0.24757,-1.55627 -0.55014,-2.83521 -0.33967,-1.43571 -0.63605,-3.94497 -0.77469,-6.55869 -0.12349,-2.32833 -0.30166,-4.43198 -0.39592,-4.67477 -0.25967,-0.66884 -2.14157,-0.96493 -7.27508,-1.14463 -2.54662,-0.0891 -5.56392,-0.24556 -6.70512,-0.34759 -2.44107,-0.21824 -2.83616,-0.55156 -3.55576,-2.99989 l -0.45475,-1.54721 -0.92604,0.15266 c -2.4819,0.40914 -6.49616,1.58727 -9.00321,2.64232 -1.53203,0.64473 -3.07984,1.17006 -3.43959,1.1674 -1.0527,-0.008 -4.78049,-1.66449 -6.89914,-3.0661 l -1.95702,-1.29469 5.02708,-0.1683 c 5.14261,-0.17216 7.5142,-0.54575 11.90625,-1.87556 2.105,-0.63735 5.5524,-2.152 5.79632,-2.54668 0.0895,-0.14483 0.28211,-0.89761 0.42799,-1.67285 0.14589,-0.77524 0.66925,-2.24296 1.16302,-3.26161 0.49377,-1.01864 1.52026,-3.34036 2.28109,-5.15937 0.76083,-1.81901 1.96255,-4.51705 2.67048,-5.99565 0.70793,-1.4786 1.28715,-2.83025 1.28715,-3.00368 0,-0.17343 0.34781,-1.35349 0.77292,-2.62235 0.97605,-2.91332 1.21408,-4.16769 0.87043,-4.58695 -0.64493,-0.78684 -0.85728,-2.46718 -0.47311,-3.74369 0.42095,-1.3987 0.46823,-1.34904 -1.5088,-1.58476 -0.69552,-0.0829 -1.84905,-0.40221 -2.56338,-0.7095 l -1.29879,-0.55873 -1.00849,0.80726 c -2.63292,2.10754 -6.00907,2.60686 -8.84564,1.30823 -2.49331,-1.14147 -4.30229,-3.44208 -4.63918,-5.89996 -0.0898,-0.65531 -0.23642,-1.19056 -0.32578,-1.18944 -0.0894,10e-4 -0.43866,0.48561 -0.77622,1.07664 -0.56086,0.982 -0.59841,1.27249 -0.43582,3.3714 0.12988,1.67659 0.0571,2.95162 -0.26952,4.72179 -0.42806,2.31992 -0.52668,2.53063 -2.27616,4.86351 -1.00579,1.34118 -1.82871,2.55795 -1.82871,2.70392 0,0.14598 -1.47025,1.70786 -3.26721,3.47087 -3.61737,3.54901 -7.19408,7.6779 -10.25859,11.84237 -3.214403,4.36815 -4.311191,6.92707 -5.143623,12.00059 -1.11061,6.76898 0.913029,15.58514 5.040743,21.96042 0.47109,0.7276 1.12077,1.86599 1.44373,2.52976 0.81871,1.68264 1.19769,1.86376 2.94429,1.40713 1.66473,-0.43522 8.18607,-0.55497 14.66461,-0.26928 3.06553,0.13518 4.96322,0.36434 6.87917,0.83068 10.4442,2.54214 14.43814,3.42536 17.33021,3.83239 3.54765,0.49931 8.37911,0.66419 8.94503,0.30527 z M 57.811459,235.83785 c 3.369855,-1.10377 6.221156,-1.79348 9.128125,-2.20802 1.382448,-0.19715 3.882761,-0.6148 5.55625,-0.92813 2.848081,-0.53325 3.554683,-0.55872 11.046606,-0.3983 l 8.003897,0.17139 0.236517,-0.62209 c 0.130085,-0.34214 0.31388,-1.56998 0.40844,-2.72854 0.09456,-1.15855 0.280268,-3.11849 0.412689,-4.35541 0.646755,-6.04127 1.115785,-11.90455 0.980498,-12.25711 -0.08294,-0.21615 -0.545806,-0.47388 -1.028581,-0.57274 -0.482774,-0.0989 -2.60418,-0.58202 -4.714232,-1.0737 -2.110052,-0.49167 -4.702371,-1.02854 -5.760709,-1.19304 -2.074704,-0.32248 -2.705958,-0.72201 -2.705958,-1.71265 0,-0.5813 1.170834,-1.97618 1.658774,-1.97618 0.259567,0 3.245879,-4.60221 4.377954,-6.74688 2.082475,-3.94514 3.990856,-9.54893 3.634394,-10.67205 -0.08237,-0.25953 -0.476369,-0.60224 -0.875549,-0.76159 l -0.725781,-0.28972 0.835499,0.13519 c 1.09901,0.17783 1.367258,-0.33653 1.747792,-3.35129 0.2627,-2.08123 0.244832,-2.40732 -0.166298,-3.03478 -0.897308,-1.36947 0.181607,-2.26638 2.726274,-2.26638 2.013128,0 3.868979,0.6338 8.74736,2.98735 8.61347,4.15554 14.69467,9.01122 17.31,13.82161 0.60812,1.1185 1.21862,2.0405 1.35668,2.04889 0.13807,0.008 0.66591,-0.74861 1.173,-1.68223 l 0.92197,-1.6975 0.17341,1.89511 c 0.29531,3.22722 1.75284,5.29528 4.68051,6.64109 2.60559,1.19775 6.7337,0.50438 8.55792,-1.4374 0.71336,-0.75934 1.13427,-0.76855 2.73644,-0.0598 0.81413,0.36013 1.87695,0.57031 3.0102,0.59531 l 1.75174,0.0386 -0.0825,-1.19062 c -0.12452,-1.79774 -1.28869,-6.46905 -1.92895,-7.74008 -0.31127,-0.61791 -0.9795,-1.63343 -1.48498,-2.25672 l -0.91904,-1.13326 -1.89333,0.15368 c -1.7822,0.14467 -1.96615,0.10691 -3.1343,-0.64334 -1.17041,-0.75169 -1.22788,-0.84269 -1.01066,-1.60011 0.13475,-0.46983 0.1282,-1.1592 -0.0158,-1.66124 -0.13536,-0.47198 -0.24611,-1.16512 -0.24611,-1.54031 0,-0.56978 -0.31605,-0.86254 -1.91823,-1.7769 -1.05503,-0.6021 -2.87073,-1.52568 -4.0349,-2.05239 -1.16416,-0.52671 -2.71198,-1.23576 -3.43958,-1.57566 -1.97719,-0.92366 -3.90555,-1.69024 -4.46988,-1.77692 -0.27562,-0.0423 -0.74462,-0.40341 -1.04222,-0.80239 -0.51463,-0.68995 -0.51998,-0.76972 -0.10944,-1.63064 0.23741,-0.49786 0.95688,-1.60016 1.59881,-2.44956 1.80726,-2.39134 1.82856,-2.46028 1.24974,-4.04388 -0.9209,-2.51946 -2.32353,-3.89335 -4.89889,-4.79852 -1.84483,-0.6484 -3.84733,-0.63234 -5.68958,0.0456 -0.80036,0.29455 -2.2199,0.70986 -3.15452,0.92291 -0.93462,0.21305 -1.85027,0.51265 -2.03478,0.66578 -0.1845,0.15312 -0.64407,1.08603 -1.02125,2.07311 -0.72331,1.89288 -1.23619,2.48727 -2.85097,3.30408 -0.932675,0.47177 -1.02117,0.47501 -1.485998,0.0543 -0.271843,-0.24602 -1.242695,-0.56784 -2.157444,-0.71515 -0.914752,-0.14732 -1.880021,-0.3839 -2.145038,-0.52573 -0.811168,-0.43412 -2.744118,0.23096 -4.074385,1.40191 -1.368004,1.20417 -1.857036,2.02076 -2.10792,3.51987 -0.301802,1.80334 -0.271142,1.7873 -1.783839,0.93358 -0.768416,-0.43367 -1.998866,-0.91754 -2.734334,-1.07527 -1.287031,-0.27602 -1.363231,-0.34344 -2.030674,-1.79691 -0.86758,-1.8893 -2.777744,-3.82329 -4.687898,-4.74638 -1.203945,-0.58181 -1.843879,-0.7103 -3.587555,-0.72032 -1.878065,-0.0108 -2.32546,0.0879 -3.888676,0.85744 -1.939901,0.95501 -3.530899,2.54382 -4.451361,4.44524 -0.31083,0.64208 -0.651195,1.16743 -0.75637,1.16743 -0.105171,0 -0.455303,-0.35719 -0.778068,-0.79375 -0.322765,-0.43656 -0.779703,-0.79375 -1.015418,-0.79375 -0.376396,0 -0.407611,0.2953 -0.256399,2.42561 0.0947,1.33409 0.237003,2.49044 0.316235,2.56967 0.07923,0.0792 0.375158,-2.6e-4 0.657606,-0.17665 0.282448,-0.17639 0.563517,-0.32071 0.624596,-0.32071 0.06108,0 0.195467,0.62507 0.298638,1.38906 0.202277,1.49788 0.527775,2.3151 0.922094,2.3151 0.218041,0 3.698278,-1.93839 4.760812,-2.65164 1.660393,-1.11456 2.05558,-1.31524 2.591713,-1.31612 0.994019,-0.002 1.782353,1.04234 2.133,2.82465 0.466624,2.37181 0.438539,5.30627 -0.06381,6.66648 -0.707591,1.91596 -0.582285,2.49756 0.800304,3.71456 0.67533,0.59446 1.096192,1.08082 0.935249,1.08082 -0.160946,0 -0.702093,-0.35951 -1.202547,-0.79892 l -0.909921,-0.79892 -1.20282,2.00121 -1.202822,2.0012 0.648327,0.29539 c 0.46032,0.20974 0.648324,0.50737 0.648324,1.02638 0,0.40204 0.281583,1.06754 0.625737,1.47888 0.515763,0.61646 0.64769,1.13347 0.750629,2.94165 0.109087,1.91615 0.264268,2.46863 1.226346,4.36604 0.605801,1.19476 1.101455,2.2517 1.101455,2.34874 0,0.20012 -1.851681,1.39037 -1.932146,1.24197 -1.739384,-3.20795 -2.729796,-4.57179 -4.570299,-6.2935 -0.940747,-0.88002 -2.065202,-1.78348 -2.498794,-2.0077 -0.98647,-0.51013 -1.221824,-0.39387 -4.945041,2.44261 -6.186533,4.71314 -12.23363,10.86796 -14.023184,14.27301 l -0.718437,1.36699 0.492422,2.60176 c 1.501243,7.93197 3.614584,16.06253 4.549153,17.50177 0.467389,0.71978 0.779695,0.68315 4.464034,-0.52362 z m 64.825031,-44.20817 c 0.10123,-0.76398 0.27822,-1.48939 0.3933,-1.61201 0.22468,-0.2394 1.32438,0.23972 1.32438,0.57701 0,0.25246 -1.58343,2.42407 -1.76751,2.42407 -0.0738,0 -0.0514,-0.62508 0.0498,-1.38907 z m 1.18851,-0.91434 c 0,-0.62536 -0.65295,-0.22702 -0.75301,0.45939 -0.0799,0.54835 -0.038,0.58359 0.33073,0.27761 0.23225,-0.19276 0.42228,-0.52441 0.42228,-0.737 z m -45.37604,0.52361 c -0.436563,-0.0622 -0.912813,-0.23865 -1.058334,-0.39222 -0.184295,-0.19448 0.0064,-0.22845 0.628386,-0.11193 0.491132,0.092 1.294804,0.16728 1.785937,0.16728 0.491133,0 0.892969,0.11906 0.892969,0.26458 0,0.2635 -0.739058,0.28726 -2.248958,0.0723 z m 21.196395,34.4021 c 0.790075,-1.04821 2.407175,-2.83415 3.593565,-3.96875 4.28213,-4.09525 5.14668,-5.02278 7.59515,-8.14834 2.64714,-3.37919 4.30192,-6.46093 4.97251,-9.26042 0.76074,-3.17582 -0.11954,-5.67833 -3.32528,-9.45336 -2.54805,-3.00054 -4.59922,-4.51333 -9.31313,-6.86867 -3.417407,-1.70752 -4.490084,-2.12079 -5.975487,-2.30214 -1.932826,-0.23598 -2.195758,-0.12241 -2.203214,0.95165 -0.0068,0.98274 -2.156402,9.1431 -2.683563,10.1875 -0.272518,0.5399 -0.495488,1.10654 -0.495488,1.2592 0,0.32074 -2.11846,5.33491 -2.907033,6.88064 -0.930142,1.82323 -0.660736,2.38648 1.142736,2.38911 0.461039,8e-4 1.55263,0.29551 2.425755,0.65518 0.873125,0.35967 1.891803,0.65678 2.263731,0.66023 1.077306,0.01 3.940108,1.07349 4.200755,1.56051 0.154662,0.28899 0.05607,1.18165 -0.282054,2.55388 -0.285903,1.16028 -0.63023,3.2407 -0.765167,4.62314 -0.13494,1.38245 -0.424437,3.82323 -0.643327,5.42396 -0.218889,1.60073 -0.400306,3.61578 -0.403148,4.47789 l -0.0052,1.56748 0.685678,-0.64144 c 0.377121,-0.35278 1.3321,-1.49905 2.122175,-2.54725 z m 43.522265,-19.45928 c 0.0356,-1.76456 -0.0427,-2.93985 -0.20722,-3.10844 -0.0708,-0.0725 -0.29752,0.0991 -0.50391,0.3813 -0.66063,0.90347 -0.3391,4.1162 0.41196,4.1162 0.14913,0 0.28375,-0.62508 0.29917,-1.38906 z m -5.6499,-16.71338 c 0.23499,-0.23499 -0.49481,-1.15846 -2.26479,-2.86579 -1.7833,-1.72017 -3.00855,-2.35676 -2.54624,-1.32292 0.11388,0.25467 0.21723,1.09034 0.22967,1.85706 0.0216,1.32926 0.0717,1.42486 1.07803,2.05757 0.85377,0.53677 1.27888,0.6367 2.22512,0.52306 0.64334,-0.0773 1.21853,-0.18931 1.27821,-0.24898 z M 64.161642,178.75922 c -0.204621,-1.65353 -0.242782,-1.74205 -0.644038,-1.49406 -0.294275,0.18187 -0.400119,2.84746 -0.124026,3.12355 0.08699,0.087 0.336682,0.0897 0.554881,0.006 0.319085,-0.12245 0.360805,-0.4425 0.213183,-1.63542 z m 23.961813,-4.57478 c 0.339875,-2.09097 2.401903,-4.41696 4.38378,-4.94495 0.726586,-0.19357 0.76798,-0.29005 0.987047,-2.30046 0.332314,-3.04967 0.184875,-13.53743 -0.236836,-16.84695 -0.199197,-1.56325 -0.606269,-3.39409 -0.904603,-4.06853 -0.298334,-0.67443 -0.542425,-1.38409 -0.542425,-1.57703 0,-0.90839 0.669983,-1.70862 1.788012,-2.1356 1.030303,-0.39348 1.383403,-0.40872 2.780877,-0.12008 1.909966,0.3945 2.627484,0.85766 6.061753,3.91293 2.1142,1.88087 2.78634,2.66467 3.47019,4.04669 0.785,1.58644 0.85171,1.93105 0.89634,4.63021 0.0417,2.52219 -0.054,3.26215 -0.70804,5.47673 -0.41595,1.40829 -0.88412,2.79945 -1.0404,3.09146 -0.5403,1.00955 -0.37184,1.15611 1.10491,0.96134 0.76399,-0.10076 1.92485,-0.4233 2.57969,-0.71676 1.70541,-0.76424 4.60361,-0.91964 6.43108,-0.34483 1.13241,0.35618 1.65504,0.39786 2.34196,0.18678 0.48634,-0.14945 1.47133,-0.35141 2.18887,-0.44882 0.71754,-0.0974 2.05749,-0.40964 2.97767,-0.69385 1.56639,-0.48381 1.7154,-0.60033 2.33748,-1.82795 0.67012,-1.32241 1.44583,-3.64073 2.51971,-7.5304 0.78733,-2.85177 0.80493,-6.28873 0.0431,-8.40935 -1.32886,-3.69885 -4.74093,-7.06812 -8.99781,-8.88493 -1.41128,-0.60233 -2.66749,-1.09494 -2.79156,-1.0947 -0.46121,7.9e-4 -7.32316,-3.06418 -15.35918,-6.8606 -3.271993,-1.54578 -4.372848,-1.90991 -2.944328,-0.97391 0.368345,0.24135 0.669716,0.60024 0.669716,0.79754 0,0.48042 -3.219016,3.47062 -5.149154,4.78314 l -1.548537,1.05303 -0.548881,-0.78844 c -0.301885,-0.43365 -1.384512,-1.62886 -2.405841,-2.65603 -3.307606,-3.32652 -9.319831,-5.78593 -15.978963,-6.5365 l -2.74492,-0.30938 -1.819142,1.90767 c -2.136714,2.24071 -2.218254,2.65238 -1.025396,5.17706 0.436563,0.92399 0.79375,1.81324 0.79375,1.97611 0,0.33488 0.234122,0.90168 1.980182,4.79399 1.319077,2.94046 1.973961,5.68544 2.655469,11.13051 0.209455,1.67349 0.507429,3.63802 0.66216,4.36562 0.154733,0.72761 0.348874,1.99163 0.431424,2.80895 0.208875,2.06806 -0.195993,2.57476 -3.267017,4.08871 -1.390676,0.68558 -2.90054,1.56639 -3.355255,1.95736 -0.454716,0.39097 -1.383274,1.08812 -2.063462,1.54922 -2.270157,1.53894 -2.399091,1.84477 -2.191925,5.19919 0.172088,2.78649 0.216803,2.956 0.996411,3.7773 0.448929,0.47295 0.909521,0.8599 1.023538,0.8599 0.114017,0 0.456051,-0.48759 0.760076,-1.08352 0.799481,-1.56712 2.69757,-3.34962 4.433075,-4.16312 1.285296,-0.60247 1.857788,-0.70615 3.888449,-0.70423 2.089362,0.002 2.574211,0.0966 3.955442,0.77182 1.926963,0.94201 3.528028,2.54465 4.552834,4.55733 0.707654,1.3898 0.876736,1.54497 1.994193,1.83003 0.671539,0.17131 1.678829,0.54839 2.238423,0.83796 1.311942,0.67887 1.51302,0.61868 1.696104,-0.50766 z"
         id="path5101"
         inkscape:connector-curvature="0" />
      <path
         style="fill:#09060f;stroke-width:0.26458335"
         d="m 149.35729,276.08385 c -1.4552,-0.1251 -4.37224,-0.59169 -6.48229,-1.03688 -2.11005,-0.44519 -5.4438,-1.11267 -7.40833,-1.48328 -1.96453,-0.37062 -4.16719,-0.78624 -4.89479,-0.92362 -1.37079,-0.2588 -2.89742,-0.49317 -8.06979,-1.23889 -1.82496,-0.26312 -4.78993,-0.44213 -7.40834,-0.44729 -4.11463,-0.008 -4.47864,0.0331 -6.33131,0.7161 -1.08113,0.39858 -2.57044,1.1412 -3.30958,1.65026 -1.67381,1.1528 -2.49472,1.17265 -3.72763,0.0901 -1.15992,-1.01843 -2.138507,-3.11638 -3.744681,-8.0281 -0.666213,-2.03729 -1.420304,-4.12089 -1.67576,-4.63021 -0.567184,-1.13085 -2.441966,-7.55303 -3.050897,-10.45104 -0.244615,-1.16417 -0.557255,-2.65245 -0.694756,-3.30729 -0.137499,-0.65485 -0.272915,-3.19333 -0.300921,-5.64107 -0.04174,-3.64812 -0.122471,-4.48889 -0.447797,-4.66366 -1.72212,-0.92518 -11.292615,-1.4291 -15.55945,-0.81927 -0.973918,0.13919 -2.781726,0.37847 -4.017351,0.53172 -2.335718,0.28969 -4.912141,0.84961 -10.021819,2.17801 -2.17383,0.56515 -4.034947,1.2981 -6.711181,2.64302 -4.378753,2.20052 -5.310542,2.41023 -6.449824,1.45159 -1.039471,-0.87466 -1.424416,-2.54797 -1.430385,-6.21772 -0.0026,-1.55324 -0.181121,-3.65747 -0.396875,-4.67607 -0.215755,-1.01859 -0.392282,-2.10897 -0.392282,-2.42307 0,-0.80571 -1.89983,-7.33131 -3.175654,-10.90786 -0.597966,-1.67629 -1.002932,-3.22588 -0.915247,-3.50216 0.08651,-0.27255 0.893517,-1.02099 1.793362,-1.66321 0.899843,-0.64221 2.4535,-2.01447 3.452569,-3.04946 0.99907,-1.03499 2.204302,-2.20656 2.678295,-2.60349 0.473991,-0.39692 2.764306,-2.50762 5.089592,-4.69043 2.325282,-2.18281 4.909682,-4.55003 5.743109,-5.26048 2.303542,-1.96365 5.251876,-5.4788 6.165895,-7.35128 0.7277,-1.49078 1.271963,-3.30174 1.795854,-5.97544 0.241123,-1.23058 -0.346792,-1.33724 -2.184365,-0.39627 -3.459398,1.77145 -5.000046,2.60581 -5.61947,3.0433 -0.835655,0.59022 -1.909003,0.58982 -2.63176,-10e-4 -0.543195,-0.44402 -0.571714,-0.72362 -0.694923,-6.81302 -0.07066,-3.4925 -0.172156,-8.13594 -0.225539,-10.31875 -0.05338,-2.18281 -0.02175,-4.61795 0.0703,-5.41141 0.161708,-1.39399 0.216466,-1.47531 1.622565,-2.40966 1.692368,-1.12458 3.589113,-2.27646 4.984142,-3.02684 0.541073,-0.29105 1.679133,-1.06012 2.529025,-1.70907 l 1.545259,-1.17989 -0.153593,-1.33365 c -0.08448,-0.73342 -0.286957,-2.46466 -0.449956,-3.8471 -0.374446,-3.17581 -1.831435,-8.15834 -4.023206,-13.75834 -0.939761,-2.40109 -1.914129,-5.02047 -2.165266,-5.82083 -0.251137,-0.80037 -0.868079,-2.05775 -1.370983,-2.79418 -0.91567,-1.34086 -1.034299,-1.79292 -0.943891,-3.59683 0.04241,-0.84617 0.197292,-1.05426 1.239094,-1.66479 0.654844,-0.38377 1.190625,-0.78613 1.190625,-0.89414 0,-0.10801 0.376997,-0.41908 0.837769,-0.69127 1.180859,-0.69755 9.822228,-7.95677 12.303631,-10.33573 3.00147,-2.87754 3.980145,-2.95407 6.096587,-0.47675 1.629958,1.90788 4.88314,4.39463 7.737838,5.91483 3.340653,1.77898 9.353841,5.16199 11.614151,6.53409 2.16297,1.31301 7.5652,4.03602 8.00713,4.03602 0.1519,0 1.01087,0.28921 1.90881,0.6427 0.89794,0.35349 3.50405,1.36188 5.79134,2.24087 4.98633,1.91622 6.71871,2.76946 9.8615,4.85704 2.45171,1.62853 6.76586,5.60922 7.4213,6.84768 0.8155,1.54088 0.69132,8.40851 -0.18228,10.08112 -0.13216,0.25302 -0.54044,1.50318 -0.90729,2.77813 -1.51775,5.2747 -1.74805,5.91582 -2.3637,6.58011 -0.7202,0.77712 -4.72219,10.67919 -4.58331,11.34045 0.0529,0.25196 1.63962,1.141 3.92528,2.19934 l 3.83645,1.77644 3.84,3.83691 c 2.86991,2.86761 4.3563,4.60558 5.88378,6.87963 l 2.04379,3.0427 1.59021,6.08542 c 1.96259,7.51044 2.01089,8.52208 0.68283,14.30256 -0.86255,3.75431 -1.08426,4.32061 -4.39664,11.22973 -1.91855,4.00183 -3.64486,7.71465 -3.83623,8.25071 -0.33209,0.93028 -0.61701,6.42092 -0.34719,6.69074 0.071,0.071 3.39577,0.61464 7.38842,1.20813 3.99265,0.59349 7.52575,1.13358 7.85133,1.2002 1.16682,0.23875 1.37074,1.03437 1.89963,7.41187 0.66662,8.0382 1.23109,10.33582 4.68871,19.0851 1.50787,3.81555 2.74157,7.16587 2.74157,7.44516 0,0.81378 -0.81836,1.53405 -2.38125,2.09583 -1.76443,0.63422 -7.70168,0.92327 -11.77396,0.5732 z m 5.6224,-4.89436 c 0.51212,-0.15802 0.39273,-1.60001 -0.29195,-3.52623 -1.26792,-3.56704 -3.34812,-13.85751 -3.34929,-16.56847 -0.001,-2.49393 -0.44372,-6.1967 -0.79077,-6.61487 -0.42133,-0.50768 -1.41231,-0.61861 -8.16089,-0.91356 -3.39722,-0.14847 -6.62861,-0.39162 -7.18088,-0.54033 -1.53924,-0.41448 -1.9882,-1.54989 -1.9882,-5.02812 0,-3.71277 0.45738,-6.36367 1.43496,-8.31674 0.44188,-0.88282 1.1751,-2.4981 1.62938,-3.58951 1.94297,-4.66802 2.44509,-5.81387 3.53623,-8.06979 0.63346,-1.30969 1.23731,-2.79797 1.34189,-3.30729 0.10458,-0.50932 0.52409,-1.84661 0.93225,-2.97175 0.63875,-1.7608 1.32893,-6.2894 1.09253,-7.16865 -0.0323,-0.12019 -0.12004,-1.25129 -0.19495,-2.51354 -0.15982,-2.69314 -1.18739,-7.24506 -1.9966,-8.84447 -1.26514,-2.50057 -6.25327,-8.02823 -7.90798,-8.76332 -0.3638,-0.16162 -0.88932,-0.50032 -1.16782,-0.75267 -1.06976,-0.96931 -12.0186,-6.12142 -13.48852,-6.34718 -0.27562,-0.0423 -0.74462,-0.40341 -1.04222,-0.80239 -0.51463,-0.68995 -0.51998,-0.76972 -0.10944,-1.63064 0.23741,-0.49786 0.95907,-1.60016 1.60368,-2.44956 1.35285,-1.78264 2.606,-4.02038 5.16173,-9.21729 2.42394,-4.9289 4.10042,-10.14507 4.44205,-13.8209 0.54266,-5.83885 -3.30066,-11.28333 -10.11878,-14.33434 -1.32891,-0.59467 -2.50535,-1.08122 -2.61431,-1.08122 -0.2854,0 -5.17575,-2.15206 -9.78616,-4.30653 -2.18282,-1.02003 -4.67144,-2.14354 -5.53028,-2.49667 -2.654429,-1.09142 -3.874325,-1.75466 -10.609307,-5.76813 -1.164167,-0.69374 -2.473854,-1.44144 -2.910417,-1.66154 -1.054213,-0.53152 -4.995804,-3.09743 -6.454193,-4.20157 -0.639389,-0.48408 -1.334775,-0.88014 -1.545301,-0.88014 -0.50256,0 -2.72388,1.85921 -6.148168,5.14593 -5.26723,5.05563 -6.811386,6.68875 -6.987379,7.38997 -0.125624,0.50052 0.08567,1.33343 0.730978,2.88146 0.499223,1.19759 1.291431,3.12993 1.76046,4.2941 0.46903,1.16416 1.209125,2.89057 1.644658,3.83646 0.817727,1.77592 1.63317,5.66333 2.056236,9.80255 0.282342,2.76241 0.722546,5.60672 1.071396,6.92267 0.195652,0.73805 0.16623,1.20803 -0.118253,1.88889 -0.321021,0.76831 -0.773943,1.09993 -2.973181,2.17688 -1.426959,0.69877 -3.016128,1.64287 -3.531486,2.09801 -0.515358,0.45513 -1.378474,1.09384 -1.918034,1.41935 -0.539557,0.32551 -1.294423,0.9643 -1.677482,1.41953 -0.692166,0.8226 -0.695426,0.84742 -0.52795,4.02022 0.319538,6.05356 0.423707,8.7539 0.401715,10.41343 -0.03633,2.74133 0.331986,3.22138 1.666306,2.1718 0.369998,-0.29104 0.799346,-0.52917 0.954103,-0.52917 0.243607,0 3.654822,-1.88658 4.794533,-2.65164 1.650826,-1.10814 2.047505,-1.31524 2.520816,-1.31612 1.477883,-0.003 2.115732,1.30419 2.500812,5.12403 0.163208,1.61898 0.118504,2.47143 -0.188375,3.59209 -0.2213,0.80814 -0.478348,1.82654 -0.571217,2.2631 -0.347319,1.63271 -2.170147,4.5757 -4.379894,7.07144 -1.653106,1.86705 -3.311525,3.34117 -6.041316,5.36994 -6.122242,4.55003 -13.68352,12.09375 -15.302257,15.26674 -0.594246,1.16482 -0.590349,2.61328 0.01418,5.26752 1.421378,6.24073 2.222891,9.83848 2.438394,10.9452 0.427538,2.19562 1.556632,5.35123 2.086163,5.83045 0.612675,0.55447 2.013453,0.39261 4.797698,-0.55438 2.606151,-0.88641 6.624339,-1.78197 12.257291,-2.73187 5.379514,-0.90716 8.827024,-1.05481 16.412282,-0.7029 5.721387,0.26545 5.534491,0.35224 5.787544,-2.68775 0.266932,-3.20671 0.689266,-7.66099 0.960831,-10.13376 0.135843,-1.23693 0.325303,-3.45548 0.421021,-4.93011 0.170606,-2.62834 0.161565,-2.6889 -0.459031,-3.07535 -0.862676,-0.53718 -11.09522,-2.82239 -12.718851,-2.84046 -0.319088,-0.004 -1.011087,-0.82276 -1.011087,-1.19696 0,-0.19987 0.545687,-0.87486 1.212636,-1.49998 3.603789,-3.37774 8.746244,-14.10708 8.536268,-17.81027 -0.03301,-0.58208 0.07677,-1.53458 0.24394,-2.11667 0.167175,-0.58208 0.384493,-1.85837 0.482934,-2.8362 0.144647,-1.43685 0.09331,-1.90862 -0.267611,-2.45946 -0.245623,-0.37487 -0.37589,-0.90433 -0.289483,-1.17657 0.332042,-1.04617 3.069664,-1.37821 5.70229,-0.69163 2.532687,0.66053 10.473068,4.68734 14.144658,7.17319 3.68372,2.49407 7.63658,6.23904 8.64757,8.19276 0.30121,0.58208 0.84981,1.57848 1.21911,2.21422 0.3693,0.63574 0.69357,1.46918 0.7206,1.85209 0.027,0.3829 0.14077,1.36269 0.25274,2.17731 0.14323,1.04208 0.0669,2.24012 -0.25745,4.04163 -0.44039,2.44587 -0.53656,2.663 -2.14836,4.8501 -0.92804,1.25927 -1.68734,2.39893 -1.68734,2.53258 0,0.13364 -1.2179,1.45178 -2.70644,2.92919 -3.8808,3.85179 -7.33451,7.73329 -9.64307,10.8375 -1.103,1.48314 -2.2957,3.04242 -2.65045,3.46506 -0.92859,1.10628 -3.146273,5.83742 -3.608495,7.69824 -0.719129,2.89508 -1.038971,6.14882 -0.840504,8.55041 0.458618,5.54958 2.478871,11.66018 5.333929,16.13336 0.49162,0.77025 1.13619,1.916 1.43238,2.54612 0.29619,0.63012 0.82057,1.41063 1.16528,1.73447 0.62008,0.58253 0.64656,0.5843 2.48627,0.16587 2.13291,-0.48512 7.01378,-0.54295 14.37197,-0.17028 4.18155,0.21178 5.19496,0.36294 9.525,1.42071 12.2183,2.98477 14.59425,3.43688 19.39767,3.69114 1.41232,0.0747 4.01747,-0.0501 4.56407,-0.21877 z M 98.573938,170.32532 c -0.04337,-0.0434 -0.838769,-0.20058 -1.767544,-0.34934 -2.470025,-0.39564 -2.879309,-0.74123 -2.879309,-2.43122 0,-0.7616 0.115961,-1.78905 0.257691,-2.28323 0.166883,-0.58189 0.167812,-2.9122 0.0026,-6.61284 -0.338085,-7.57471 -0.700927,-10.63453 -1.502582,-12.67126 -0.618935,-1.57249 -0.631299,-1.70214 -0.22193,-2.32692 0.871013,-1.32933 3.17605,-1.60508 5.356106,-0.64074 1.133647,0.50147 3.58139,2.52012 6.41978,5.29439 1.7243,1.68534 2.34813,3.70335 2.24926,7.27604 -0.08,2.88933 -0.85585,5.78843 -3.09168,11.5521 -1.01394,2.61378 -1.63969,3.21121 -3.399503,3.24561 -0.739238,0.0144 -1.379556,-0.009 -1.42293,-0.0526 z m 1.071417,55.31573 c 0.790075,-1.04821 2.407175,-2.83415 3.593565,-3.96875 4.28213,-4.09525 5.14668,-5.02278 7.59515,-8.14834 2.64714,-3.37919 4.30192,-6.46093 4.97251,-9.26042 0.76074,-3.17582 -0.11954,-5.67833 -3.32528,-9.45336 -2.54805,-3.00054 -4.59922,-4.51333 -9.31313,-6.86867 -3.417407,-1.70752 -4.490084,-2.12079 -5.975487,-2.30214 -1.932826,-0.23598 -2.195758,-0.12241 -2.203214,0.95165 -0.0068,0.98274 -2.156402,9.1431 -2.683563,10.1875 -0.272518,0.5399 -0.495488,1.10654 -0.495488,1.2592 0,0.32074 -2.11846,5.33491 -2.907033,6.88064 -0.930142,1.82323 -0.660736,2.38648 1.142736,2.38911 0.461039,8e-4 1.55263,0.29551 2.425755,0.65518 0.873125,0.35967 1.891803,0.65678 2.263731,0.66023 1.077306,0.01 3.940108,1.07349 4.200755,1.56051 0.154662,0.28899 0.05607,1.18165 -0.282054,2.55388 -0.285903,1.16028 -0.63023,3.2407 -0.765167,4.62314 -0.13494,1.38245 -0.424437,3.82323 -0.643327,5.42396 -0.218889,1.60073 -0.400306,3.61578 -0.403148,4.47789 l -0.0052,1.56748 0.685678,-0.64144 c 0.377121,-0.35278 1.3321,-1.49905 2.122175,-2.54725 z"
         id="path5099"
         inkscape:connector-curvature="0" />
    </g>
  </g>
</svg>
