<svg id="svg863" xmlns="http://www.w3.org/2000/svg" height="392" width="458" viewBox="0 0 458 392"><title>icon</title><g id="layer1"><path id="path1414" d="M101.1,96.1s14,141.5-58,289l145.5-18.4L244,90Z" transform="translate(-4.68 -35.9)" fill="#000012" stroke="#000" stroke-width="14.17"/><path id="path1416" d="M150.1,223.9,258.6,395.5l189.2,24.4-123.4-196Z" transform="translate(-4.68 -35.9)" fill="#000012" stroke="#000" stroke-width="14.17"/><path id="path1408" d="M74.8,79.6s14,141.5-58,289l145.5-18.4L217.7,73.5Z" transform="translate(-4.68 -35.9)" fill="#e9c21b" stroke="#000" stroke-width="14.17"/><path id="path1418" d="M63.7,59.5,179.9,296.7C179.8,296.7,591.2,57.6,63.7,59.5Z" transform="translate(-4.68 -35.9)" fill="#000012" stroke="#000" stroke-width="14.17"/><path id="path1412" d="M123.8,207.5,232.3,379.1l189.2,24.4-123.4-196Z" transform="translate(-4.68 -35.9)" fill="#3fc4eb" stroke="#000" stroke-width="14.17"/><path id="path1410" d="M37.3,43,153.5,280.2S564.9,41.1,37.3,43Z" transform="translate(-4.68 -35.9)" fill="#59ea39" stroke="#000" stroke-width="14.17"/></g></svg>