<svg xmlns="http://www.w3.org/2000/svg" id="Layer_1" data-name="Layer 1" viewBox="0 0 500 280"><defs><style>.cls-1{fill:#fff;}</style></defs><title>Artboard 2</title><path xmlns="http://www.w3.org/2000/svg" id="w" d="M92.86,245.76c.12-2.22.62-4.55.3-6.77-.52-3.61,1.9-4.65,4.33-5.73,2.61-1.16,3.81.43,5.62,2.32,6.07,6.33,12.64,12.17,20.07,19.19-2.65-13.49-4.63-25.76-12.8-36.23,1.07-.7,2.12-1.43,3.21-2.1,3.54-2.16,5.69-1.44,7.76,2.48,7.55,14.31,10.31,29.74,11.43,45.59.08,1.13-1.74,3.47-2.49,3.4-2.53-.26-5.66-.63-7.34-2.24-7-6.66-13.44-13.8-20.12-20.75a4.91,4.91,0,0,0-1.34-.79c-2.24,7.58-4.13,15.11-6.72,22.39-2.09,5.87-3.45,6.19-9,4.88-1.1-8.95-1.51-17.69-3.39-26.1A41.34,41.34,0,0,0,68.9,223.14c3.69-3.67,7.79-3.45,11.24,1.62C84.66,231.42,88.52,238.53,92.86,245.76Z"/><path xmlns="http://www.w3.org/2000/svg" id="q" d="M178.37,190.1c-12.29,1.82-22.46,9.52-35.94,10.71,7.31-12.1,12.09-23.51,13.81-36,.38-2.73.06-5.57.06-9.53,3.72-3.87,5.85-3.83,10.3.9a28.39,28.39,0,0,0,5.65,4.66c10.42,6.48,20.93,12.82,31.39,19.24.39.23.59.77,1.72,2.33l-19.38,5,8.58,15.21-8.11,1.44C183.47,198.92,180.86,194.41,178.37,190.1Zm-1.75-3.25c-4.2-6.81-8.05-13.08-12.14-19.74-3.39,9.37-6.55,18.08-9.88,27.3Zm1-16-.84,1c1.49,2.55,3,5.08,4.47,7.65,3.45,6,4.42,6.23,11.21,2.09Z"/><path xmlns="http://www.w3.org/2000/svg" id="m" d="M366,94.31c4.49-4.34,5.53-4.34,9.41-.22q12,12.72,24.08,25.35c.75.79,1.67,1.42,3,2.53a52.28,52.28,0,0,0-3.22-29.26c4.49-4.2,6.4-3.78,9.56,1,8,12,16.23,23.9,24.41,35.87-2.9,2.53-6,2-8.39-1.37-4.41-6.33-9-12.54-14-19.46-.82,6.83-1.4,12.56-2.25,18.25-.25,1.68-1.53,4.69-1.92,4.62-2.23-.37-4.88-1-6.4-2.46-5.53-5.49-10.67-11.37-16.56-17.76,1.21,5.34,2.3,9.84,3.21,14.37.3,1.45.6,3.19.05,4.43-.63,1.44-2.18,2.48-3.33,3.7-.93-1.13-2.26-2.12-2.73-3.42-3.08-8.58-5.76-17.31-9-25.82C370.48,101,368,97.76,366,94.31Z"/><path xmlns="http://www.w3.org/2000/svg" id="b" d="M75,68.65c2.16-1.37,4.18-3.08,6.52-4,4.11-1.68,5.62-4.7,4.68-8.68-1.89-8-4-16.06-6.33-24-1.23-4.12-3.38-7.95-4.94-12-.41-1-.63-2.94,0-3.45.94-.83,2.88-1.53,3.91-1.1C88,19.18,97,23.19,107.29,27.61L97.21,35.76a60.82,60.82,0,0,1,25.88,16.47c2.52,2.62,4.64,5.62,7,8.42C132,63,131,64.34,128.59,65a15.33,15.33,0,0,1-4.86.55C114.81,65.14,105.87,64,97,64.3c-4.8.14-9.53,2.53-14.28,3.92-2.33.68-4.64,1.39-7,2.08ZM90.4,39.86c.48,7.64.9,14.29,1.3,20.74l28.31-2C111.1,49.63,102.73,41.83,90.4,39.86Zm-8-17,5.51,12.55L97.86,31l-.23-1.45Z"/><path xmlns="http://www.w3.org/2000/svg" id="n" d="M454.78,106.06c1.79,7.47,3.62,14.18,4.89,21,.29,1.56-1.32,3.47-2.06,5.23-1.38-1.28-3.44-2.3-4-3.88-4.38-11.59-8.47-23.3-12.85-35.49,2.56-2.09,5.45-2.8,9,1,10.46,11.11,23.42,18.94,37,27.5-2.67-11.11-4.94-21.34-11.85-29.85-1.24-1.53-4.74-3.62-1.49-5.45,1.91-1.08,6.69-.47,7.81,1.09a85,85,0,0,1,9.32,16.9c3.21,7.8,5.64,15.93,8.12,24,.26.85-1.38,3.27-2.11,3.26A12.56,12.56,0,0,1,490,129.8C478.36,122.16,466.89,114.27,454.78,106.06Z"/><path xmlns="http://www.w3.org/2000/svg" id="s" d="M300.43,203.7l7.42-17.59-1.23-.52c.22-.25.42-.68.67-.71,2.52-.29,5-.51,7.56-.76a44.62,44.62,0,0,1-1.11,7.17,68,68,0,0,1-3.45,7.71h32c-4.29-10.09-8.56-19.42-19.37-23.25-4.61-1.64-9.13-.95-13.48,1.47a12.34,12.34,0,0,1-5.58,1.37c-3.21.08-4.62-1.14-3.9-5,1.34-7,1.87-14.17,3-21.24a4.38,4.38,0,0,1,2.35-3c1.58-.52,4.32-.9,5-.05,4.54,5.41,8.66,11.17,13.23,17.22-6.24,2.93-9.16-2.46-13.32-4.8-.57,3.53-1.09,6.75-1.71,10.53,8.46-2.14,16.76-2.41,24.17,2.21,9.92,6.2,15.56,15.94,18.93,26.72,1.21,3.88-3.36,3.06-5.72,2.83-6.42-.62-12.8-2.17-19.2-2.17s-12.73,1.57-19.12,2.2A44.23,44.23,0,0,1,300.43,203.7Z"/><path xmlns="http://www.w3.org/2000/svg" id="u" d="M445.31,196.66c6.29-15.4,4.26-28.91-1.88-42.24,4.65-2.19,8.36-.91,10,4.48,2.93,9.5,6.21,19.06,3.67,29.3a26.37,26.37,0,0,0-.4,3.8h30.43L462.6,154.59c6.65-4,9.38-3,14,4.77,6.34,10.53,12.85,21,19.2,31.5a21.22,21.22,0,0,1,1.48,4.26c-1.69.39-3.39,1.19-5.05,1.11-7.78-.35-15.55-1.37-23.31-1.3-4.7,0-9.36,1.94-14.1,2.44C451.84,197.68,448.73,197,445.31,196.66Z"/><path xmlns="http://www.w3.org/2000/svg" id="d" d="M227.5,67.78l8.74-4.93c-2.49-5.92-5.11-12-7.58-18.05-3.11-7.69-6.19-15.4-9.08-23.18-.5-1.38-.43-4.26.18-4.52,1.9-.79,4.45-1.35,6.24-.66s2.93,3,4.44,4.56c13.06,13.3,26.66,25.94,43,35.29,1.44.82,3,1.48,4.37,2.38A37.21,37.21,0,0,1,281,61.26c-1.23.9-2.36,2.29-3.72,2.58a12,12,0,0,1-5.87-.17c-12.14-3.79-23.61-1.23-35,3.26-2.65,1-5.44,1.71-8.17,2.55Zm34.56-10.47L230.73,32.13l11.36,28.34Z"/><path d="M498.25,70.54c-3,.49-6.07,1.77-8.91,1.35C476.4,70,463.59,69.44,450.84,73c-2,.55-4.11.69-7,1.15,6.49-13.06,7.87-26.19,8-39.5a62.4,62.4,0,0,0-1.31-14.39c-1-4.32.22-6.28,4-7,5.59,7,11.1,13.83,16.43,20.79.7.91.46,2.54.65,3.84-1.3-.15-3,.16-3.84-.53-3.08-2.41-5.88-5.16-8.38-7.41-1.67,12.88-3.34,25.75-5,38.26l26-1.76c-3.2-2.14-6.15-3.83-8.76-5.94-3.09-2.5-5.9-5.36-8.83-8.05-1.87-1.72-3.58-4.23-.85-5.66a8.38,8.38,0,0,1,7.44.7c7.05,5.48,13.5,11.72,20.44,17.35,2.23,1.8,5.3,2.58,8,3.83Z"/><path d="M231,237.94V216.69c3.44-1.49,6.1-1.13,6.6,3.34.53,4.72.79,9.47,1.21,14.7l18.57-1.33-4.95-16c5.66-2.68,6.38-2.4,8.32,3,3.65,10.17,7.09,20.43,11.11,30.46,2,5,5.09,9.61,8.18,15.3L234.14,270c.74-8.61,1.47-17.09,2.26-26.32-.08,0,1.17-.39,2.4-.85,3.23-1.2,4.94,0,4.8,3.34-.26,6.62-.72,13.23-1.14,20.55l27.68-2.11c-3.58-8.76-6.75-16.93-10.33-24.92-.68-1.52-3-3.32-4.51-3.25-6,.28-11.85,1.36-17.8,1.9A40.37,40.37,0,0,1,231,237.94Z"/><path d="M218.23,155.52c3.34-.72,5.8-2.05,7.81-1.55,10.65,2.62,21.19,5.66,31.74,8.67a44.5,44.5,0,0,1,5.71,2.58l-9.89,13.5c4.07-1.44,6.91-2.54,9.81-3.44,4.78-1.49,5.64-.25,5.81,4.57.3,8.23,1.41,16.44,2.28,25.67l-6.18.42c-1.36-8.84-2.63-17.14-4-26.18-3.11,1.34-6.42,2.39-9.26,4.18-1.13.72-1.78,3.15-1.64,4.71.32,3.45,1.64,6.83,1.8,10.27.08,1.54-1.63,3.16-2.52,4.75-1.08-1.18-2.8-2.2-3.15-3.56C242,182.7,233.38,167.9,218.23,155.52Zm37,9.75-22.73-5.58,14,18.24Z"/><path d="M250,112.86l5.71-23.79c4.4,2,4.73,7.72,1.47,22.1,6-.9,9.13-9.49,16.11-6.3-.43,5-1.3,9.53-1.06,14s1.6,8.77,2.48,13.24c-5.28,3.35-7.37,2.79-8.87-3.26-1.23-5-1.74-10.11-2.69-16-3.41,2.44-7.5,4.5-10.23,7.71-1.29,1.52-.19,5.28.2,8,.61,4.33-1.78,5.78-5.4,5.8-1,0-2.78-1.37-2.81-2.15-.55-19-11.76-31.84-24.84-44,3.4-2.82,6.81-1.52,9.18.92C234.8,94.8,239.9,100.93,245,107a44.26,44.26,0,0,1,3.55,5.76Z"/><path d="M339.35,67c-1.44-2.79-2.77-4.61-3.31-6.64-.39-1.5-.35-4.15.53-4.75,2.11-1.43,4.68-2.67,6.59,1.1,2.38,4.69,5.37,9.07,8.38,14.06-2.43,2.34-5.09,3.36-9.61,2-10.69-3.29-21.69-4.2-32.6-.26-2.23.8-4.62,1.15-8,2,1.92-12.68,9-21.1,16.1-29.87L303.75,42.2c1.51-9.6,2.73-18.47,4.4-27.25.34-1.75,2.38-3.17,4.6-5.94C315,18.2,318,25,323.87,30.14c.54.47.44,2.78.15,2.89-1.28.46-3.17,1-4,.45-2.44-1.7-4.48-4-7.06-6.37-1.11,3.58-2.21,7.11-3.69,11.89h20l.54,1.76c-9.6,6.72-16.53,15.34-20.07,26.24Z"/><path d="M164.52,269.87c3.6-9.18,7.08-18.13,10.64-27.06,1.3-3.26.17-5.37-2.78-6.91-8.09-4.25-16.14-8.55-24.53-13,3.05-2.77,6.4-2.14,9.71-.51,6.26,3.07,12.45,6.3,19.44,9.85V216.66l9.27-2.9c-.58,7.38-.8,13.61-1.68,19.75-.43,3,.43,4.73,2.49,6.83,6.69,6.86,13,14,19.59,21.18-5.48,3.77-8.28,2.69-11.37-1.84-3.61-5.31-8.1-10-12.62-15.48-3.51,7.89-6.46,15-9.83,21.9C170.84,270.22,168.71,270.8,164.52,269.87Z"/><path d="M299.52,217.07l44.18,7.87-26.32,33,29.48,6.17-7.45-20.24c5.27-3.14,6-2.8,7.85,2.45,2.53,7.18,5.31,14.27,8.42,22.58a51.24,51.24,0,0,1-6.23-.5c-10.38-2.24-20.71-4.71-31.12-6.83-3.24-.66-6.66-.48-11.53-.77,10.54-11.72,20.79-21.49,27.5-34.79l-26.64-4c1.33,4.07,2.75,7.77,3.71,11.58a20.49,20.49,0,0,1,.4,6.9c-.09,1-1.43,1.91-2.21,2.86-.76-1-1.86-1.78-2.23-2.86C304.65,232.74,302.11,224.92,299.52,217.07Z"/><path d="M417.22,161.4,400,162.72c5.56,11.75,4,23.2-.07,35l19.28,1.07c-1.78-4.32-3.37-8.21-5-12.1,6-3.57,7.63-3,10.59,3.11,1.86,3.85,4,7.58,6.53,12.45a72.59,72.59,0,0,1-8,.82q-13.59-.1-27.19-.58a35.28,35.28,0,0,1-6-1.09c1.73-8,3.43-15.3,4.83-22.66a17.4,17.4,0,0,0-.34-6c-1.52-9.27-2.38-10-11.6-12-5.22-1.13-10.38-2.54-15.56-3.83.07-.73.13-1.47.2-2.21,2.9,0,6-.67,8.66.11,11.77,3.49,23.57,5.65,35.88,3.4,1.63-.29,3.46.57,5.2.89C417.31,159.86,417.26,160.63,417.22,161.4Z"/><path d="M2.25,224.1c2.51.24,5.2,0,7.48.8,10.34,3.84,17.82,11.32,24.3,19.94,1.29,1.72,2.62,3.42,3.93,5.13l1.54-.15L37.68,219l-1.44-.17c1-.5,2-1.07,3-1.49,5.15-2.08,6-1.54,6.84,3.83,2.35,15.15.68,30.21-1.29,45.21-.72,5.49-5.15,2.91-8.32,3-4.72-20.14-16.94-34-34.93-43.33Z"/><path d="M15.35,132.53l.46-5.53H8.08c1.61-1.29,2.26-2.25,3-2.33,5.34-.61,5.36-4.1,4.88-8.22-1.21-10.51-4.8-20-12.4-27.81,3.22-2.72,5.66-2.28,8.18.17,7.36,7.14,9.93,16.28,11.11,26,.24,2,.33,3.94.55,6.63L43,118.2C37.67,106.62,32.62,95.73,27,83.48c2.62.81,5.16.81,6.25,2.07a55.41,55.41,0,0,1,7.25,10.58c3.74,7.22,7.11,14.65,10.47,22.06,1,2.24,2.28,4.85,2,7.07-.27,1.85-2.7,3.38-4.17,5-1.08-1.15-3-2.23-3.09-3.47-.46-4.89-3.15-5.65-7.27-4.82-3.11.63-6.23,1.26-9.38,1.61-3.42.38-5.71,1-6.84,4.78-.61,2-3.52,3.26-5.41,4.85Z"/><path d="M372.38,17.66c2.88-3.67,5.55-3.86,9.67-1.12,12,8,24.2,16,39.12,17.79.41.05.78.54,1.45,1-2.29,3.39-5.47,3.31-8.64,2.33-7.22-2.23-14.37-4.69-21.61-7.08,2.91,4.6,5.73,9.42,9,13.93.88,1.22,3,1.82,4.64,2.15,3,.6,6.11.79,9.76,1.23-2.87,5.08-6.75,3.61-10.95,3,2.14,4.84,3.95,9.18,6,13.42,1.18,2.47,1.23,4.4-1.41,5.85-3.15,1.74-3.62-1-4.57-2.76-2.18-4.12-4.62-8.14-6.34-12.44s-4.35-6.36-9-6c-1.21.09-2.46-.44-4-1.95l7-3.14Z"/><path d="M5.47,203c5.2-12.08,10.16-23.11,14.66-34.33,1.37-3.4,1.19-7.39,2.27-11a6.28,6.28,0,0,1,3.66-3.65c1.45-.43,4.14.09,4.91,1.17,6.45,9.07,12.59,18.36,18.8,27.59.74,1.11,1.34,2.31,2.12,3.38,3.19,4.34,2.47,5.64-2.93,6.88-11.8,2.71-23.53,5.74-35.31,8.55C11,202.28,8.29,202.55,5.47,203ZM28.25,165.6c-4.92,11.31-9.38,21.59-14.17,32.59l30.06-7.91Z"/><path d="M186.86,59c-.54-1.08-1.57-2.33-1.78-3.71-.28-1.86-.48-5.17.25-5.47,2.49-1,5.55-1.64,7.19,1.94,2.14,4.66,4.4,9.25,6.75,14.16-2.67,2.36-5.4,3.46-9.15,1.51A45.6,45.6,0,0,0,163,62.73c-3.9.49-7.63,2.45-11.81,3.88-.18-1.43-.5-2.14-.3-2.65,5.8-14.73,7.4-30.26,9-45.82.21-1.92,2-3.67,3.22-5.88,4.33,7.21,8,13.07,11.33,19.09.53.95.19,3.31-.54,3.79a4.69,4.69,0,0,1-4.27.2c-1.81-1.28-3.07-3.33-4.87-5.41C163,39.84,161.19,49.35,159.4,59Z"/><path d="M411,265.32c-6.33,2.09-9,.54-10.84-5-1.16-3.52-3.07-6.79-4.95-10.83-2.55,4.77-4.91,8.71-6.82,12.87s-4.63,4.69-8.45,3c3.76-8.31,7.45-16.46,11.6-25.65-9.14.62-16.59,3.51-25.41-.31l23.07-3.21-3.85-14.35c7.44-3.29,7.83-2.91,13,12.94,8.6.22,17.47-1.37,25.9,1.52l-.28,1.73H397.35Z"/><path d="M313.88,129h27.27L329,115.55c4.38-2.6,8-2.84,11.41,1.43,4.12,5.16,8.55,10.08,12.84,15.1l-.79,1.73c-2.73.05-5.57.54-8.13-.1-11.53-2.89-22.87-3.42-34.31.57-2.38.83-5.3.12-8.66.12,8.23-18,5.69-33.52-6.33-47.64,3.46-2.72,6.75-2.58,9.54,2.18,3.74,6.36,7.31,13.19,9,20.28C315.06,115.56,313.88,122.52,313.88,129Z"/><path d="M130.23,174.45l-25.87,12.27c.92,4.07,1.54,7.3,2.39,10.48.71,2.63,1.88,5.29-1.91,6.49-4.22,1.33-3.89-2.49-4.92-4.59C95,189.17,90.47,179,85.2,169.32c-2.24-4.13-6-7.45-9.2-11.36,3-3.1,5.61-3.81,10-1.12,12.15,7.34,25.49,12,39.38,15,1.55.33,3.09.73,4.64,1.1Zm-10.59.73-26.18-8.51c3.42,6.26,6.3,11.55,9.38,17.18Z"/><path d="M196.88,133.19c-2.41.38-4.6,1.16-6.72,1-11.35-.92-22.68-2.06-34-3.15a9.15,9.15,0,0,1-1.85-.55c.4-5.68.8-11.23,1.2-16.88,6.05-1.85,7.76,1.8,5.77,13l24.23,2.6c-3.82-5.6-7.25-10.23-10.26-15.11Q169,104,163.31,93.45a11.68,11.68,0,0,1-1.16-6.23c.13-1.55,1.55-3,2.4-4.47,1.6,1.18,4.14,2,4.67,3.6C175,103.56,187.33,116.78,196.88,133.19Z"/><path d="M42.51,62l-3.08-7.84C29,58.79,20.26,66.37,9.75,70.23L9,69.08c2.32-3.11,5.67-5.91,6.78-9.41a283.28,283.28,0,0,0,7-27.87c.85-4,.25-8.31.77-12.42.2-1.56,1.69-3,2.6-4.43,1.33,1,3.34,1.7,3.9,3C35.19,30,40.17,42.17,44.89,54.4,46.38,58.28,45.85,58.87,42.51,62Zm-4.7-13.09c-2.7-6-5.2-11.67-7.86-17.66-2.18,9.43-4.18,18.07-6.28,27.13Z"/><path d="M71,86.64c1.37-.32,2.78-1,4.09-.89,13.81,1.55,27.6,3.24,41.54,6L100,92.6c5.45,10.93,10.68,21.6,16.17,32.14.58,1.11,2.59,1.76,4,2.06,4.2.87,8.46,1.44,12.69,2.13l.21,1.33c-1.55.51-3.1,1.49-4.64,1.47-11.74-.18-23.48-.56-35.23-.9a10,10,0,0,1-1.91-.47c2.82-3.08,2.82-3.08,17-3.86-3.91-8.43-7.7-16.64-11.53-24.82-.65-1.39-1.59-2.65-2.18-4.05a10.39,10.39,0,0,0-9.08-6.52c-4.87-.21-9.69-1.48-14.53-2.29Z"/><path class="cls-1" d="M176.62,186.85l-22,7.56c3.33-9.22,6.49-17.93,9.88-27.3C168.57,173.77,172.42,180,176.62,186.85Z"/><path class="cls-1" d="M177.58,170.82l14.84,10.72c-6.79,4.14-7.76,3.93-11.21-2.09-1.46-2.57-3-5.1-4.47-7.65Z"/><path class="cls-1" d="M90.4,39.86c12.33,2,20.7,9.77,29.61,18.78l-28.31,2C91.3,54.15,90.88,47.5,90.4,39.86Z"/><path class="cls-1" d="M82.43,22.83l15.2,6.76L97.86,31l-9.92,4.34Z"/><path class="cls-1" d="M262.06,57.31l-20,3.16L230.73,32.13Z"/><path class="cls-1" d="M255.24,165.27l-8.75,12.66-14-18.24Z"/><path class="cls-1" d="M28.25,165.6l15.89,24.68-30.06,7.91C18.87,187.19,23.33,176.91,28.25,165.6Z"/><path class="cls-1" d="M119.64,175.18l-16.8,8.67c-3.08-5.63-6-10.92-9.38-17.18Z"/><path class="cls-1" d="M37.81,48.94,23.67,58.41c2.1-9.06,4.1-17.7,6.28-27.13C32.61,37.27,35.11,42.89,37.81,48.94Z"/></svg>